<?xml version="1.0" encoding="utf-8"?>
<!-- Generator: Adobe Illustrator 22.0.0, SVG Export Plug-In . SVG Version: 6.00 Build 0)  -->
<svg version="1.1" xmlns="http://www.w3.org/2000/svg" xmlns:xlink="http://www.w3.org/1999/xlink" x="0px" y="0px"
	 viewBox="0 0 3710 3710" style="enable-background:new 0 0 3710 3710;" xml:space="preserve">
<style type="text/css">
	.st0{fill:url(#SVGID_1_);}
	.st1{opacity:0.3;}
	.st2{fill:#7D97F4;}
	.st3{fill:#91B3FA;}
	.st4{fill:#BDD0FB;}
	.st5{clip-path:url(#SVGID_3_);}
	.st6{fill:url(#SVGID_4_);}
	.st7{fill:url(#SVGID_5_);}
	.st8{fill:url(#SVGID_6_);}
	.st9{fill:url(#SVGID_7_);}
	.st10{fill:url(#SVGID_8_);}
	.st11{fill:url(#SVGID_9_);}
	.st12{fill:url(#SVGID_10_);}
	.st13{fill:url(#SVGID_11_);}
	.st14{fill:url(#SVGID_12_);}
	.st15{fill:url(#SVGID_13_);}
	.st16{fill:url(#SVGID_14_);}
	.st17{fill:url(#SVGID_15_);}
	.st18{fill:url(#SVGID_16_);}
	.st19{fill:url(#SVGID_17_);}
	.st20{fill:url(#SVGID_18_);}
	.st21{fill:url(#SVGID_19_);}
	.st22{fill:url(#SVGID_20_);}
	.st23{fill:url(#SVGID_21_);}
	.st24{fill:url(#SVGID_22_);}
	.st25{fill:url(#SVGID_23_);}
	.st26{fill:url(#SVGID_24_);}
	.st27{fill:url(#SVGID_25_);}
	.st28{fill:url(#SVGID_26_);}
	.st29{fill:url(#SVGID_27_);}
	.st30{fill:none;stroke:url(#SVGID_28_);stroke-width:6;stroke-miterlimit:10;}
</style>
<g id="Background">
</g>
<g id="Illustration">
	<g>
		<linearGradient id="SVGID_1_" gradientUnits="userSpaceOnUse" x1="3458.8049" y1="4081.2659" x2="1021.0602" y2="1053.7397">
			<stop  offset="0" style="stop-color:#DAE3FE"/>
			<stop  offset="1" style="stop-color:#E9EFFD"/>
		</linearGradient>
		<path class="st0" d="M2788.2,2887.3c-56,58.9-109,97-150.8,127c-492,353-1074.3,250.1-1198,225
			c-182.7-37.1-535.9-108.8-791.3-409.1c-386.3-454.3-326.2-1170.1-26.5-1642.6c54.8-86.4,344.4-566.1,932.9-643
			c356.2-46.6,771.3,47.3,1072,299.2C3257.4,1372.5,3212.5,2440.6,2788.2,2887.3z"/>
		<g>
			<g>
				<g class="st1">
					<path class="st2" d="M1220.5,1110c5.7-1.7,11.9,1.1,14.2,6.7c5.2,12.3,9.8,24.9,14,37.7c2,6.2-1.4,12.8-7.6,14.8
						c-0.1,0-0.1,0-0.2,0.1c-6.1,1.9-12.6-1.5-14.6-7.7c-3.9-12.1-8.4-24.1-13.3-35.8c-2.5-6,0.3-12.9,6.3-15.4
						C1219.8,1110.3,1220.1,1110.1,1220.5,1110z M1249.5,1208.5c0.4-0.1,0.9-0.2,1.4-0.3c6.4-1.1,12.5,3.1,13.7,9.5
						c2.3,13.2,4.1,26.5,5.3,39.8c0.6,6.5-4.2,12.2-10.7,12.8c-6.5,0.6-12.2-4.2-12.8-10.7c-1.1-12.6-2.8-25.3-5.1-37.8
						C1240.2,1215.9,1243.8,1210.2,1249.5,1208.5z M1256,1310.8c1.3-0.4,2.6-0.6,4-0.5c6.5,0.3,11.5,5.8,11.2,12.3
						c-0.6,13.3-1.9,26.8-3.7,40c-0.9,6.4-6.8,11-13.3,10.1c-6.4-0.9-11-6.8-10.1-13.3c1.7-12.6,2.9-25.3,3.5-38
						C1247.9,1316.4,1251.4,1312.2,1256,1310.8z M1239.5,1412.1c2.1-0.6,4.3-0.7,6.6-0.1c6.3,1.8,9.9,8.3,8.1,14.5
						c-3.6,12.8-7.8,25.7-12.5,38.2c-2.3,6.1-9.1,9.2-15.2,6.9c-6.1-2.3-9.2-9.1-6.9-15.2c4.5-11.9,8.5-24,11.9-36.3
						C1232.7,1416.2,1235.8,1413.2,1239.5,1412.1z M1200.8,1507.2c2.9-0.9,6.2-0.6,9,0.9c5.7,3.1,7.8,10.3,4.7,16
						c-6.4,11.7-13.3,23.3-20.7,34.4c-3.6,5.4-10.9,6.9-16.3,3.4c-5.4-3.6-6.9-10.9-3.4-16.3c7-10.6,13.6-21.6,19.6-32.7
						C1195.4,1510,1198,1508,1200.8,1507.2z M1142.1,1591.3c3.8-1.1,8-0.4,11.2,2.4c4.9,4.3,5.4,11.7,1.1,16.6
						c-8.8,10-18.1,19.8-27.8,29c-4.7,4.5-12.2,4.3-16.7-0.3c-4.5-4.7-4.3-12.1,0.3-16.7c9.1-8.8,18-18,26.4-27.6
						C1138.2,1593.1,1140.1,1591.9,1142.1,1591.3z M737.1,1742.9c1.6-0.5,3.2-0.6,5-0.4c12.5,1.7,25.3,2.8,38,3.4
						c6.5,0.3,11.5,5.8,11.2,12.3c-0.3,6.5-5.8,11.5-12.3,11.2c-13.3-0.6-26.8-1.8-40-3.6c-6.4-0.9-11-6.8-10.1-13.2
						C729.4,1747.9,732.8,1744.2,737.1,1742.9z M1066.2,1660.3c4.7-1.4,9.9,0.2,13,4.4c3.8,5.3,2.6,12.6-2.7,16.4
						c-10.8,7.8-22.1,15.2-33.5,22.1c-5.6,3.3-12.8,1.5-16.2-4.1c-3.3-5.6-1.5-12.8,4.1-16.2c10.9-6.5,21.6-13.6,31.8-21
						C1063.8,1661.2,1065,1660.6,1066.2,1660.3z M839.6,1745c0.7-0.2,1.5-0.4,2.3-0.5c12.6-1.2,25.3-2.9,37.8-5.1
						c6.4-1.1,12.5,3.1,13.7,9.5c1.1,6.4-3.1,12.6-9.5,13.7c-13.1,2.4-26.5,4.2-39.8,5.4c-6.5,0.6-12.2-4.2-12.8-10.6
						C830.8,1751.7,834.4,1746.6,839.6,1745z M976.8,1710.6c5.7-1.7,11.9,1.1,14.2,6.7c2.5,6-0.3,12.9-6.3,15.4
						c-12.3,5.2-24.9,9.9-37.6,14c-0.1,0-0.2,0.1-0.2,0.1c-6.1,1.8-12.6-1.5-14.6-7.6c-2-6.2,1.4-12.8,7.6-14.8
						c12.1-3.9,24.1-8.4,35.7-13.3C976,1710.8,976.4,1710.7,976.8,1710.6z"/>
					<path class="st2" d="M656.4,1724.6c2.2-0.7,4.7-0.7,7,0.1c5.8,1.9,11.7,3.7,17.6,5.3c6.3,1.8,9.9,8.3,8.2,14.5
						c-1.8,6.3-8.3,9.9-14.5,8.2c-6.2-1.7-12.4-3.6-18.5-5.6c-6.2-2-9.6-8.7-7.6-14.8C649.8,1728.4,652.8,1725.7,656.4,1724.6z"/>
				</g>
				<g class="st1">
					<path class="st2" d="M385.4,1489c5.4-1.6,11.4,0.9,14,6.1c2.7,5.5,5.5,11,8.4,16.3c3.1,5.7,0.9,12.9-4.8,16
						c-5.8,3.1-12.9,0.9-16-4.8c-3-5.7-6-11.5-8.8-17.2c-2.8-5.9-0.4-12.9,5.4-15.7C384.2,1489.4,384.8,1489.2,385.4,1489z"/>
					<path class="st2" d="M664.8,849.3c5.2-1.6,10.4-3.1,15.7-4.5c6.3-1.7,12.7,2.1,14.4,8.4c1.7,6.3-2.1,12.8-8.4,14.4
						c-12.2,3.2-24.2,7-35.9,11.1c-6.1,2.2-12.9-1-15-7.1c-2.2-6.1,1-12.9,7.1-15.1C649.9,854,657.4,851.5,664.8,849.3z M741.5,833
						c0.6-0.2,1.3-0.3,2-0.4c13-1.6,26.3-2.7,39.4-3.2c6.5-0.3,12,4.8,12.2,11.3c0.3,6.5-4.8,12-11.3,12.2
						c-12.4,0.5-25,1.5-37.4,3.1c-6.5,0.8-12.3-3.8-13.1-10.2C732.5,840,736.1,834.6,741.5,833z M585.9,881.3
						c5.3-1.6,11.2,0.7,13.8,5.8c3,5.8,0.8,12.9-5,15.9c-11,5.7-22,12-32.5,18.7c-5.5,3.5-12.8,1.8-16.3-3.7
						c-3.5-5.5-1.8-12.8,3.7-16.3c11.1-7,22.6-13.7,34.3-19.7C584.6,881.8,585.2,881.5,585.9,881.3z M842.5,831.6
						c1.4-0.4,3-0.6,4.5-0.4c13.1,1.3,26.2,3.1,39.1,5.5c6.4,1.2,10.6,7.3,9.4,13.7c-1.2,6.4-7.3,10.6-13.7,9.5
						c-12.3-2.3-24.8-4-37.2-5.2c-6.5-0.6-11.2-6.4-10.6-12.9C834.6,836.9,838.1,833,842.5,831.6z M502.1,937.5
						c4.4-1.3,9.3,0,12.4,3.7c4.2,5,3.6,12.4-1.4,16.6c-9.5,8-18.8,16.6-27.6,25.4c-4.6,4.6-12.1,4.6-16.7,0
						c-4.6-4.6-4.6-12.1,0-16.7c9.3-9.3,19.1-18.3,29.1-26.7C499.2,938.7,500.6,938,502.1,937.5z M432.6,1010.7
						c3.5-1.1,7.4-0.5,10.5,1.9c5.2,3.9,6.2,11.3,2.3,16.5c-7.5,9.9-14.7,20.3-21.4,30.8c-3.5,5.5-10.8,7.1-16.3,3.6
						c-5.5-3.5-7.1-10.8-3.6-16.3c7-11.1,14.6-22,22.6-32.4C428.2,1012.8,430.3,1011.4,432.6,1010.7z M380.8,1097.3
						c2.7-0.8,5.6-0.7,8.3,0.6c5.9,2.7,8.5,9.7,5.8,15.6c-5.2,11.4-10,23-14.2,34.8c-2.2,6.1-8.9,9.3-15.1,7.1
						c-6.1-2.2-9.3-9-7.1-15.1c4.4-12.3,9.5-24.6,14.9-36.6C374.9,1100.5,377.6,1098.3,380.8,1097.3z M349,1193.2
						c1.8-0.6,3.8-0.7,5.8-0.2c6.4,1.4,10.4,7.6,9.1,14c-2.6,12.2-4.7,24.7-6.2,37c-0.8,6.5-6.7,11-13.1,10.2
						c-6.5-0.8-11-6.7-10.2-13.2c1.6-13,3.8-26.1,6.6-39C341.8,1197.7,345.1,1194.4,349,1193.2z M339.1,1293.7
						c1-0.3,2.1-0.5,3.3-0.5c6.5-0.1,11.8,5.1,11.9,11.6c0.2,12.4,0.9,25,2.1,37.5c0.6,6.5-4.1,12.2-10.6,12.9
						c-6.5,0.6-12.2-4.1-12.9-10.6c-1.3-13.1-2-26.3-2.2-39.4C330.7,1299.8,334.2,1295.2,339.1,1293.7z M351.5,1393.9
						c0.2-0.1,0.5-0.1,0.7-0.2c6.3-1.5,12.7,2.4,14.2,8.7c2.1,8.9,4.5,17.9,7.2,26.7c1,3.2,2,6.3,3,9.5c2,6.2-1.4,12.8-7.5,14.8
						c-6.2,2.2-12.8-1.4-14.8-7.5c-1.1-3.3-2.1-6.6-3.1-10c-2.8-9.2-5.3-18.7-7.6-28.1C342,1401.8,345.6,1395.7,351.5,1393.9z"/>
					<path class="st2" d="M941.6,852.6c2.2-0.7,4.7-0.7,7.1,0.1c6.1,2,12.2,4.2,18.2,6.4c6.1,2.3,9.2,9.1,6.9,15.2
						c-2.3,6.1-9.1,9.2-15.2,6.9c-5.7-2.2-11.5-4.2-17.3-6.1c-6.2-2-9.5-8.7-7.5-14.9C935,856.4,938,853.7,941.6,852.6z"/>
				</g>
				<g>
					<g>
						<path class="st3" d="M965.9,988c-1.9-1.3-4.5-1.2-6.4,0.2l-53.5,40.3c-29.3-11.1-60.5-17.6-92.7-18.8l-33.5-58
							c-1.2-2-3.5-3.1-5.8-2.6l-78.9,15.4c-2.3,0.4-4.1,2.3-4.4,4.6l-9.3,66.3c-29.4,13.2-55.9,31-78.8,52.2l-64.7-17.3
							c-2.3-0.6-4.7,0.3-6,2.2l-44.9,66.6c-1.3,1.9-1.2,4.5,0.2,6.4l40.3,53.5c-11.1,29.2-17.6,60.5-18.8,92.7l-58,33.5
							c-2,1.2-3.1,3.5-2.6,5.8l15.4,78.9c0.4,2.3,2.3,4.1,4.6,4.4l66.3,9.3c13.2,29.4,31,55.9,52.2,78.8l-17.3,64.7
							c-0.6,2.3,0.3,4.7,2.2,6l66.6,44.9c1.9,1.3,4.5,1.2,6.4-0.2l53.5-40.3c29.2,11.1,60.5,17.6,92.7,18.8l33.5,58
							c1.2,2,3.5,3.1,5.8,2.6l78.9-15.4c2.3-0.4,4.1-2.3,4.4-4.6l9.3-66.3c29.4-13.2,55.9-31,78.8-52.2l64.7,17.3
							c2.3,0.6,4.7-0.3,6-2.2l44.9-66.6c1.3-1.9,1.2-4.5-0.2-6.4l-40.3-53.5c11.1-29.3,17.6-60.5,18.8-92.7l58-33.5
							c2-1.2,3.1-3.5,2.6-5.8l-15.4-78.9c-0.4-2.3-2.3-4.1-4.6-4.4l-66.3-9.3c-13.2-29.4-31-55.9-52.2-78.8l17.3-64.7
							c0.6-2.3-0.3-4.7-2.2-6L965.9,988z"/>
					</g>
					<g>
						<path class="st4" d="M778.7,1225.7c37.7-11.4,79.2,6.3,96.4,43c19,40.3,1.6,88.5-38.7,107.5c-19.5,9.2-41.5,10.2-61.8,2.9
							c-20.3-7.3-36.5-22.1-45.7-41.6c-19-40.3-1.6-88.5,38.7-107.5C771.2,1228.2,774.9,1226.8,778.7,1225.7z M819.8,1362.4
							c2.9-0.9,5.8-2,8.6-3.3c30.9-14.5,44.2-51.5,29.7-82.4c-14.5-30.9-51.5-44.2-82.4-29.7c-30.9,14.5-44.2,51.5-29.7,82.4
							c7,15,19.5,26.3,35.1,31.9C793.6,1365.9,807.1,1366.2,819.8,1362.4z"/>
					</g>
					<g>
						<path class="st4" d="M743.4,1114.5c6.5-2,13.1-3.6,19.8-4.9l0,0c2.1-0.4,4.2-0.8,6.4-1.1c10.5-1.7,21.1-2.6,31.7-2.6
							c0.1,0,0.3,0,0.4,0c0.4,0,0.8,0,1.2,0c0.8,0,1.6,0,2.4,0c2.1,0,3.8,1.4,4.4,3.3c0.1,0.5,0.2,1,0.2,1.5
							c-0.1,2.6-2.2,4.7-4.8,4.6c-13.4-0.3-26.9,0.9-40.1,3.5c-65.8,12.8-117,58.5-139.9,116.7c-12.7,32.4-16.7,68.6-9.6,105.2
							c1.2,6.4,2.8,12.7,4.7,18.9c12.6,41.6,38.8,77.2,75.3,101.8c41.9,28.2,92.3,38.5,141.9,28.8c102.4-20,169.5-119.5,149.5-221.9
							c-1.2-6.3-2.8-12.5-4.6-18.7c-8-26.5-21.7-51-40.3-71.6c-0.5-0.5-0.8-1.1-1-1.8c-0.5-1.7,0-3.6,1.4-4.9
							c1.9-1.7,4.9-1.6,6.7,0.4c19.5,21.6,33.9,47.3,42.3,75.1c1.9,6.4,3.6,13,4.9,19.6c20.9,107.5-49.5,212-157,232.9
							c-52.1,10.1-105-0.6-149-30.3c-38.3-25.8-65.9-63.3-79-106.9c-2-6.5-3.6-13.1-4.9-19.8c-10.1-52.1,0.6-105,30.2-149
							C662.2,1155.2,699.7,1127.7,743.4,1114.5z"/>
					</g>
				</g>
			</g>
			<g>
				<g class="st1">
					<path class="st2" d="M1515.5,696.7c3-0.9,6.4,0.2,8.2,3c3.4,5.2,6.6,10.5,9.7,15.9c2,3.5,0.8,7.9-2.7,9.9
						c-3.5,2-7.9,0.8-9.9-2.7c-2.9-5.1-6-10.2-9.3-15.1c-2.2-3.4-1.3-7.9,2.1-10.1C1514.3,697.2,1514.9,696.9,1515.5,696.7z"/>
					<path class="st2" d="M1541.7,746.1c3.5-1.1,7.4,0.7,8.8,4.2c4.1,9.8,7.7,20,10.8,30.1c0.6,2.1,1.3,4.3,1.9,6.5
						c1.1,3.9-1.4,7.8-5,9c-3.9,1.1-7.9-1.2-9-5c-0.6-2.1-1.2-4.1-1.8-6.2c-2.9-9.7-6.4-19.4-10.3-28.7c-1.5-3.7,0.2-8,3.9-9.5
						C1541.3,746.3,1541.5,746.2,1541.7,746.1z M1562,818.9c0.3-0.1,0.7-0.2,1-0.2c4-0.6,7.7,2.1,8.3,6.1
						c1.9,12.7,3.1,25.7,3.4,38.6c0.1,4-3.1,7.4-7.1,7.5c-4,0.1-7.4-3.1-7.5-7.1c-0.3-12.3-1.4-24.6-3.3-36.8
						C1556.4,823.3,1558.6,819.9,1562,818.9z M1564.1,894.4c0.9-0.3,1.8-0.4,2.8-0.3c4,0.4,6.9,4,6.5,7.9
						c-1.3,12.8-3.3,25.7-6.1,38.3c-0.9,3.9-4.8,6.4-8.7,5.5c-3.9-0.9-6.4-4.8-5.5-8.7c2.7-12,4.7-24.3,5.9-36.5
						C1559.2,897.6,1561.4,895.2,1564.1,894.4z M1547.5,968.1c1.4-0.4,3-0.4,4.6,0.1c3.8,1.4,5.7,5.5,4.4,9.3
						c-4.4,12.1-9.5,24.1-15.3,35.6c-1.8,3.6-6.2,5-9.8,3.2c-3.6-1.8-5-6.2-3.2-9.8c5.5-10.9,10.4-22.4,14.6-33.9
						C1543.6,970.3,1545.4,968.7,1547.5,968.1z M1513.5,1035.5c2-0.6,4.3-0.3,6.2,0.9c3.3,2.2,4.2,6.8,2,10.1
						c-7.2,10.7-15.1,21-23.5,30.8c-2.6,3-7.2,3.4-10.3,0.7c-3-2.6-3.4-7.2-0.7-10.3c8-9.3,15.6-19.2,22.4-29.4
						C1510.5,1037,1511.9,1036,1513.5,1035.5z M1464.1,1092.6c2.6-0.8,5.6-0.1,7.5,2.1c2.7,3,2.5,7.6-0.5,10.3
						c-9.6,8.6-19.7,16.7-30.3,24.1c-3.3,2.3-7.8,1.5-10.1-1.8c-2.3-3.3-1.5-7.8,1.8-10.1c10-7,19.8-14.8,28.9-23
						C1462.1,1093.4,1463.1,1092.9,1464.1,1092.6z M1402.2,1135.9c3.3-1,6.9,0.4,8.5,3.6c1.9,3.6,0.5,8-3,9.8
						c-11.3,6-23.2,11.4-35.3,16c-3.8,1.4-8-0.5-9.4-4.2c-1.4-3.8,0.5-8,4.2-9.4c11.5-4.4,22.8-9.5,33.7-15.2
						C1401.4,1136.2,1401.8,1136,1402.2,1135.9z M1294.4,1169.4c0.4-0.1,0.8-0.2,1.3-0.3c10.5-1.2,21.2-3.1,31.7-5.5
						c1.6-0.4,3.1-0.7,4.7-1.1c3.9-1,7.8,1.4,8.8,5.3c1,3.9-1.4,8-5.3,8.8c-1.7,0.4-3.3,0.8-5,1.2c-10.9,2.5-22.1,4.4-33.2,5.7
						c-4,0.5-7.6-2.4-8.1-6.4C1288.8,1173.7,1291.1,1170.4,1294.4,1169.4z"/>
				</g>
				<g class="st1">
					<path class="st2" d="M1165.7,572.1c3.8-1.1,7.8,1,9,4.8c1.2,3.8-0.9,7.9-4.7,9.1c-11.5,3.6-22.9,8-33.9,13
						c-3.6,1.6-8,0.1-9.6-3.6c-1.7-3.7,0-8,3.6-9.6C1141.6,580.5,1153.5,575.9,1165.7,572.1C1165.6,572.1,1165.7,572.1,1165.7,572.1
						z M1201.8,563c0.3-0.1,0.5-0.1,0.8-0.2c12.4-2.3,25.2-4,37.8-4.8c4-0.3,7.5,2.8,7.7,6.8c0.3,4-2.8,7.5-6.8,7.7
						c-12.1,0.8-24.2,2.3-36.1,4.6c-3.9,0.7-7.8-1.9-8.5-5.8C1196.1,567.6,1198.3,564.1,1201.8,563z M1098.1,602.9
						c3.1-0.9,6.5,0.3,8.3,3.2c2.1,3.4,1,7.9-2.4,10c-10.3,6.3-20.3,13.3-29.8,20.8c-3.2,2.5-7.7,2-10.2-1.2
						c-2.5-3.1-2-7.7,1.2-10.2c9.9-7.9,20.4-15.2,31.2-21.8C1097,603.3,1097.5,603,1098.1,602.9z M1276,558.1
						c0.8-0.2,1.6-0.3,2.5-0.3c12.7,0.7,25.4,2.2,37.9,4.5c4,0.7,6.6,4.5,5.9,8.5c-0.7,3.9-4.5,6.6-8.5,5.9
						c-11.9-2.1-24-3.6-36.1-4.3c-4-0.2-7.1-3.7-6.9-7.7C1271,561.5,1273.1,559,1276,558.1z M1040,649.1c2.5-0.7,5.3-0.2,7.2,1.8
						c2.9,2.8,2.9,7.4,0.1,10.3c-8.5,8.6-16.5,17.8-23.9,27.4c-2.5,3.2-7,3.8-10.2,1.3c-3.2-2.5-3.8-7-1.3-10.2
						c7.7-10,16.1-19.7,25-28.7C1037.8,650.1,1038.9,649.4,1040,649.1z M994.6,707.9c1.9-0.6,4-0.4,5.8,0.7c3.5,2.1,4.6,6.5,2.5,10
						c-6.2,10.4-11.8,21.3-16.6,32.3c-1.6,3.7-5.9,5.3-9.6,3.7c-3.7-1.6-5.3-5.9-3.7-9.6c5.1-11.6,11-23,17.4-33.9
						C991.5,709.5,993,708.4,994.6,707.9z M964.7,775.9c1.3-0.4,2.8-0.4,4.2,0c3.8,1.2,6,5.2,4.9,9.1c-3.5,11.6-6.3,23.5-8.4,35.4
						c-0.7,3.9-4.5,6.6-8.4,5.9c-4-0.7-6.6-4.5-5.9-8.4c2.2-12.5,5.1-24.9,8.8-37.1C960.6,778.4,962.4,776.6,964.7,775.9z"/>
					<path class="st2" d="M1349.4,571.4c1.3-0.4,2.8-0.4,4.3,0c5.9,1.8,11.9,3.9,17.6,6c3.8,1.4,5.7,5.6,4.2,9.4
						c-1.4,3.7-5.6,5.7-9.4,4.2c-5.5-2.1-11.1-4-16.8-5.8c-3.8-1.2-6-5.3-4.8-9.1C1345.3,573.8,1347.2,572.1,1349.4,571.4z"/>
				</g>
				<g>
					<g>
						<path class="st3" d="M1370.8,663.1c-1.3-0.9-3-0.8-4.3,0.1l-35.8,27c-19.6-7.4-40.5-11.8-62-12.6l-22.4-38.8
							c-0.8-1.4-2.3-2.1-3.9-1.8l-52.8,10.3c-1.5,0.3-2.7,1.5-2.9,3.1l-6.2,44.4c-19.7,8.8-37.4,20.7-52.7,35l-43.3-11.6
							c-1.5-0.4-3.1,0.2-4,1.5l-30.1,44.6c-0.9,1.3-0.8,3,0.1,4.3l27,35.8c-7.4,19.6-11.8,40.5-12.6,62l-38.8,22.4
							c-1.4,0.8-2.1,2.3-1.8,3.9l10.3,52.8c0.3,1.5,1.5,2.7,3.1,2.9l44.4,6.2c8.8,19.7,20.7,37.4,35,52.7l-11.6,43.3
							c-0.4,1.5,0.2,3.1,1.5,4l44.6,30.1c1.3,0.9,3,0.8,4.3-0.1l35.8-27c19.6,7.4,40.5,11.8,62,12.6l22.4,38.8
							c0.8,1.4,2.3,2.1,3.9,1.8l52.8-10.3c1.5-0.3,2.7-1.5,2.9-3.1l6.2-44.4c19.7-8.8,37.4-20.7,52.7-35l43.3,11.6
							c1.5,0.4,3.1-0.2,4-1.5l30.1-44.6c0.9-1.3,0.8-3-0.1-4.3l-27-35.8c7.4-19.6,11.8-40.5,12.6-62l38.8-22.4
							c1.4-0.8,2.1-2.3,1.8-3.9l-10.3-52.8c-0.3-1.5-1.5-2.7-3.1-2.9l-44.4-6.2c-8.8-19.7-20.7-37.4-35-52.7l11.6-43.3
							c0.4-1.5-0.2-3.1-1.5-4L1370.8,663.1z"/>
					</g>
					<g>
						<path class="st4" d="M1245.4,821.2c11.2-3.4,23.2-3.1,34.5,0.9c13.8,5,24.9,15.1,31.1,28.4c12.9,27.4,1.1,60.3-26.4,73.2
							c-27.5,12.9-60.3,1.1-73.2-26.4c-6.3-13.3-7-28.2-2-42.1c5-13.8,15-24.9,28.4-31.1C1240.2,823,1242.8,822,1245.4,821.2z
							 M1272.8,912.7c1.9-0.6,3.7-1.3,5.5-2.1c20.2-9.5,28.9-33.7,19.4-53.9c-4.6-9.8-12.7-17.2-22.9-20.9
							c-10.2-3.7-21.2-3.1-30.9,1.5l0,0c-9.8,4.6-17.2,12.7-20.9,22.9c-3.7,10.2-3.1,21.2,1.5,31
							C1233.2,909.5,1253.9,918.4,1272.8,912.7z"/>
					</g>
					<g>
						<path class="st4" d="M1220.9,743.8c4.4-1.3,8.9-2.4,13.5-3.4c9.2-1.8,18.5-2.6,27.8-2.5c0.4,0,0.8,0,1.3,0
							c3.2,0.1,5.9,2.2,6.8,5.2c0.2,0.7,0.3,1.5,0.3,2.3c-0.1,4-3.4,7.2-7.4,7.1c-8.7-0.2-17.4,0.6-26,2.3l0,0
							c-0.5,0.1-0.9,0.2-1.4,0.3c-20.2,4.1-38.6,13.2-54,26.1c-8.3,7-15.8,15.2-22.1,24.5c-0.1,0.1-0.1,0.1-0.2,0.2
							c-0.2,0.2-0.3,0.5-0.5,0.7c-18.3,27.1-24.9,59.8-18.7,91.9c0.8,4.2,1.8,8.2,3,12.2c8.1,26.9,25.1,50,48.7,65.9
							c27.1,18.3,59.8,24.9,91.9,18.6c32.1-6.3,59.9-24.6,78.2-51.8c18.3-27.1,24.9-59.8,18.7-91.9c-0.8-4.1-1.8-8.1-3-12.1
							c-5.2-17.2-14.1-33-26.1-46.3c-0.7-0.8-1.3-1.8-1.6-2.8c-0.8-2.6-0.1-5.6,2.1-7.5c3-2.7,7.6-2.4,10.3,0.5
							c13.4,14.9,23.4,32.6,29.2,51.8c1.3,4.4,2.5,8.9,3.4,13.5c7,35.9-0.4,72.4-20.9,102.8c-20.5,30.3-51.5,50.9-87.4,57.9
							c-35.9,7-72.4-0.4-102.8-20.9c-26.4-17.8-45.4-43.6-54.5-73.7c-1.3-4.5-2.5-9-3.4-13.7
							C1112.5,831.6,1154.4,763.9,1220.9,743.8z"/>
					</g>
				</g>
			</g>
		</g>
		<g>
			<defs>
				<rect id="SVGID_2_" x="395.1" y="1316.1" width="2682.6" height="1964.5"/>
			</defs>
			<clipPath id="SVGID_3_">
				<use xlink:href="#SVGID_2_"  style="overflow:visible;"/>
			</clipPath>
			<g class="st5">
				<g>
					<linearGradient id="SVGID_4_" gradientUnits="userSpaceOnUse" x1="1247.5015" y1="3890.1714" x2="527.427" y2="6136.8066">
						<stop  offset="0" style="stop-color:#FDF53F"/>
						<stop  offset="1" style="stop-color:#D93C65"/>
					</linearGradient>
					<rect x="1008.8" y="3976.8" class="st6" width="94.5" height="1021.5"/>
					<linearGradient id="SVGID_5_" gradientUnits="userSpaceOnUse" x1="1407.0049" y1="3893.2644" x2="660.7632" y2="6221.5415">
						<stop  offset="0" style="stop-color:#FDF53F"/>
						<stop  offset="1" style="stop-color:#D93C65"/>
					</linearGradient>
					<path class="st7" d="M1469.7,5018H642.4v-59c0-1.4,1.1-2.5,2.5-2.5h822.3c1.4,0,2.5,1.1,2.5,2.5V5018z"/>
					<linearGradient id="SVGID_6_" gradientUnits="userSpaceOnUse" x1="1090.2246" y1="3839.7625" x2="370.1505" y2="6086.3965">
						<stop  offset="0" style="stop-color:#FDF53F"/>
						<stop  offset="1" style="stop-color:#D93C65"/>
					</linearGradient>
					<path class="st8" d="M1592.5,3941.3c0,55.9-45.7,101.6-101.6,101.6h-837c-55.9,0-101.6-45.7-101.6-101.6v-91.8
						c0-55.9,45.7-101.6,101.6-101.6h837c55.9,0,101.6,45.7,101.6,101.6V3941.3z"/>
				</g>
				<g>
					<g>
						<linearGradient id="SVGID_7_" gradientUnits="userSpaceOnUse" x1="3157.4011" y1="4453.6919" x2="3101.3921" y2="4719.333">
							<stop  offset="0" style="stop-color:#09005D"/>
							<stop  offset="1" style="stop-color:#1A0F91"/>
						</linearGradient>
						<path class="st9" d="M2940.2,4843.1c42.4-20.6,366.9-136.1,447.9-259.5c-3.9-2.9-8.6-5-14-5.6c-91.7-11-274.8-22-437.1,35.8
							l-86,73.7c0,0-29,69.5,27.6,154.3C2892.9,4849.3,2914.8,4855.4,2940.2,4843.1z"/>
						<linearGradient id="SVGID_8_" gradientUnits="userSpaceOnUse" x1="3248.7747" y1="4408.8506" x2="3165.562" y2="4650.4878">
							<stop  offset="0" style="stop-color:#53D8FF"/>
							<stop  offset="1" style="stop-color:#3840F7"/>
						</linearGradient>
						<path class="st10" d="M3388.2,4583.6c-81.1,123.4-405.6,238.9-447.9,259.5c-25.4,12.4-47.3,6.2-61.5-1.3
							c0.1,0.2,0.2,0.3,0.3,0.4c14.3,21.4,41.8,29.5,65.8,20.1c91.3-36.1,324.1-133.4,444.7-233.2
							C3404.8,4616.4,3402.2,4594.1,3388.2,4583.6z"/>
					</g>
					<g>
						<linearGradient id="SVGID_9_" gradientUnits="userSpaceOnUse" x1="3082.9353" y1="4687.9829" x2="3213.2249" y2="5219.998">
							<stop  offset="0" style="stop-color:#09005D"/>
							<stop  offset="1" style="stop-color:#1A0F91"/>
						</linearGradient>
						<path class="st11" d="M2929,4951c42.4-20.6,366.9-136.1,447.9-259.5c-3.9-2.9-8.6-5-14-5.6c-91.7-11-274.8-22-437.1,35.8
							l-86,73.7c0,0-29,69.5,27.6,154.3C2881.7,4957.2,2903.6,4963.3,2929,4951z"/>
						<linearGradient id="SVGID_10_" gradientUnits="userSpaceOnUse" x1="3092.561" y1="4685.626" x2="3222.8503" y2="5217.6411">
							<stop  offset="0" style="stop-color:#53D8FF"/>
							<stop  offset="1" style="stop-color:#3840F7"/>
						</linearGradient>
						<path class="st12" d="M3377,4691.5c-81.1,123.4-405.6,238.9-447.9,259.5c-25.4,12.4-47.3,6.2-61.5-1.3
							c0.1,0.1,0.2,0.3,0.3,0.4c14.3,21.4,41.8,29.5,65.8,20.1c91.3-36.1,324.1-133.4,444.7-233.2
							C3393.6,4724.3,3391,4702,3377,4691.5z"/>
					</g>
					<g>
						<linearGradient id="SVGID_11_" gradientUnits="userSpaceOnUse" x1="3308.9875" y1="3963.8179" x2="2814.9731" y2="4712.9819">
							<stop  offset="0" style="stop-color:#FEBBBA"/>
							<stop  offset="1" style="stop-color:#FF928E"/>
						</linearGradient>
						<path class="st13" d="M2869.9,4543.5c-12.5,30.7-39.5,68.4-97.8,99.6l84.8,59c31.7,0.9,52.1-8.2,65.2-19.7
							c18.6-16.4,21.1-44.7,6.1-64.4C2908.8,4592.7,2889.4,4567.9,2869.9,4543.5z"/>
						<linearGradient id="SVGID_12_" gradientUnits="userSpaceOnUse" x1="2510.1843" y1="3389.0439" x2="1990.8199" y2="4176.6509">
							<stop  offset="0" style="stop-color:#CB236D"/>
							<stop  offset="1" style="stop-color:#4C246D"/>
						</linearGradient>
						<path class="st14" d="M2871.6,4516.7c-687.9-848.4-1536.9-1069.3-1536.9-1069.3l21.5,210l1429.6,999.7
							c47.8-25.6,75-72.5,90.1-105.5C2881.2,4540.1,2879.6,4526.6,2871.6,4516.7z"/>
					</g>
					<g>
						<linearGradient id="SVGID_13_" gradientUnits="userSpaceOnUse" x1="2953.0417" y1="4691.6904" x2="1494.1383" y2="5101.6733">
							<stop  offset="0" style="stop-color:#FEBBBA"/>
							<stop  offset="1" style="stop-color:#FF928E"/>
						</linearGradient>
						<path class="st15" d="M2851.5,4620.3c-3.7,29.3-20.6,81.3-89.4,124.5c25.9,20,51,40.1,74.9,60.3c9.6,8.1,22.3,11.5,34.7,9
							c23.7-4.8,59.9-19.7,70.6-65.5c2.7-11.6-0.3-23.9-7.9-33.1C2920.1,4698.4,2891.8,4665.1,2851.5,4620.3z"/>
						<linearGradient id="SVGID_14_" gradientUnits="userSpaceOnUse" x1="2725.5093" y1="3820.7258" x2="1228.1444" y2="4241.5176">
							<stop  offset="0" style="stop-color:#CB236D"/>
							<stop  offset="1" style="stop-color:#4C246D"/>
						</linearGradient>
						<path class="st16" d="M2856.8,4608.5c-214.5-235.1-742.6-747.1-1322.6-959.6c-48.3-17.7-87.5-53.8-109.8-100.1l-86.8-180.9
							c0,0-422.9-99.1-683.5,173.7c0,0,15.9,259.5,343.2,354.4c305.5,88.6,1210.8,448.2,1744.8,851.1c12.2,9.2,29.2,9.7,41.4,0.3
							c42.5-32.9,69-74,80.4-103C2868.6,4632.1,2865.6,4618.2,2856.8,4608.5z"/>
					</g>
					<linearGradient id="SVGID_15_" gradientUnits="userSpaceOnUse" x1="723.3363" y1="3303.2073" x2="1842.6024" y2="2312.0515">
						<stop  offset="0" style="stop-color:#4F52FF"/>
						<stop  offset="1" style="stop-color:#4042E2"/>
					</linearGradient>
					<path class="st17" d="M608.2,3538.1c0,0,86.3,37.8,234.2-30.6c147.9-68.4,550.1-75.2,550.1-75.2s-130.3-487.6,159.2-836.5
						c0,0,233.2,436.5,397.1,501.6l73.4,3.4v-311.4c0,0-62.3-384.4-456-671.5l-122.6-110.5c0,0-431.1-86.9-724.3,427.3
						C426.1,2949.1,608.2,3538.1,608.2,3538.1z"/>
					<linearGradient id="SVGID_16_" gradientUnits="userSpaceOnUse" x1="1728.4365" y1="2555.3599" x2="2135.7168" y2="2555.3599">
						<stop  offset="0" style="stop-color:#FEBBBA"/>
						<stop  offset="1" style="stop-color:#FF928E"/>
					</linearGradient>
					<path class="st18" d="M2047,2193.5c4.1-21.6,5.6-72.2-46.5-133.8c-69.8-82.4-159.2-40.4-159.2-40.4
						c-79.3,44.4-112.8,189.4-112.8,189.4l83.8-44.7c12.7,36.9,136.5,76.6,136.5,76.6l0.7-0.3c1.2,80.2-0.7,314.1-57.6,476.7
						c-22.3,63.7-67.6,182.1,82,385l82.4-3.4C2056.3,3098.7,2241.1,2785.2,2047,2193.5z"/>
					<g>
						
							<linearGradient id="SVGID_17_" gradientUnits="userSpaceOnUse" x1="1499.1716" y1="1390.8623" x2="1881.0061" y2="999.1103" gradientTransform="matrix(0.963 0.2697 -0.2697 0.963 221.0895 393.242)">
							<stop  offset="0" style="stop-color:#FEBBBA"/>
							<stop  offset="1" style="stop-color:#FF928E"/>
						</linearGradient>
						<path class="st19" d="M1627.9,1718.1l-229.6,324.2c-14.9,21.1-12.9,49.6,4.8,68.5c30.9,33,83.1,79.5,139.3,90.2
							c17.5,3.3,35.2-4,44.9-18.9l122.1-187.4C1709.4,1994.6,1732.8,1700.2,1627.9,1718.1z"/>
						
							<linearGradient id="SVGID_18_" gradientUnits="userSpaceOnUse" x1="-1440.8676" y1="1958.795" x2="-1924.3182" y2="2598.3608" gradientTransform="matrix(0.7999 -0.6002 0.6002 0.7999 1683.0059 -865.0446)">
							<stop  offset="0" style="stop-color:#FEBBBA"/>
							<stop  offset="1" style="stop-color:#FF928E"/>
						</linearGradient>
						<path class="st20" d="M1780.3,1507.4c3.8,5.1,128,407.8,128,407.8l-231.4,66l-174.4-364.2
							C1502.5,1617.1,1716.3,1422.1,1780.3,1507.4z"/>
						
							<linearGradient id="SVGID_19_" gradientUnits="userSpaceOnUse" x1="-1810.0907" y1="2111.0569" x2="-1232.6052" y2="2111.0569" gradientTransform="matrix(0.7999 -0.6002 0.6002 0.7999 1683.0059 -865.0446)">
							<stop  offset="0" style="stop-color:#09005D"/>
							<stop  offset="1" style="stop-color:#1A0F91"/>
						</linearGradient>
						<path class="st21" d="M1594.3,1676.9l73.7,190.8c1.6,4.2,3.8,8,6.6,11.5c12.4,15.5,48.3,52.1,88.2,13
							c30.2-29.6,58.6-56.9,85.7-70.5c23.9-12,52.8,1.1,60.4,26.7c11.4,38.4,29.4,104.3,38.8,167.1c3.4,22.7-11.5,44.2-34,48.9
							c-47.1,9.9-129.3,24.2-201.4,22.6c-16-0.4-30.3-9.8-37.4-24.1c-26.7-53.9-93.6-187.6-118.8-223.3
							c-23.2-32.8-75.5-32.6-102.1-30.1c-12.4,1.2-24.6-3-33.7-11.5c-21.3-20-49.8-60.2-9.2-110.2c14.1-17.4,12.9-42.1-2.6-58.2
							c-22.5-23.3-41.1-60.5-5.6-107.3c37.6-49.5,88.4-46.8,122.6-37c16.7,4.8,33.7-2.5,44.7-16c3.2-3.9,7.7-6.9,14.1-8
							c20.9-3.4,37-19.5,37.6-40.6c0.9-31.3,14.4-67.7,66-85.4c100.9-34.7,167.3,61.9,175.8,135.1c8.4,73.2-103.1,104.6-169.4,101.6
							c-45.9-2.1-79.8,40-96.2,66C1590.8,1649.6,1589.4,1664,1594.3,1676.9z"/>
						
							<linearGradient id="SVGID_20_" gradientUnits="userSpaceOnUse" x1="-2148.9297" y1="2465.2839" x2="-1761.1663" y2="2067.4492" gradientTransform="matrix(0.7999 -0.6002 0.6002 0.7999 1683.0059 -865.0446)">
							<stop  offset="0" style="stop-color:#FEBBBA"/>
							<stop  offset="1" style="stop-color:#FF928E"/>
						</linearGradient>
						<path class="st22" d="M1584.8,1911.6c0,0-20.2-127-73.4-131.7c-53.2-4.7-103.6,40.4-48.8,110.4
							C1530.8,1977.4,1584.8,1911.6,1584.8,1911.6z"/>
					</g>
					<linearGradient id="SVGID_21_" gradientUnits="userSpaceOnUse" x1="441.2472" y1="2984.6577" x2="1560.5144" y2="1993.5009">
						<stop  offset="0" style="stop-color:#4F52FF"/>
						<stop  offset="1" style="stop-color:#4042E2"/>
					</linearGradient>
					<path class="st23" d="M1008.8,2054.5c0,0-462.8,295.1-564.1,637.8s125.4,410.1,341.3,440.4l16.2-261.7c0,0-151.2,0-54.8-143
						c96.5-143,355.7-238.4,355.7-238.4S1760.1,1870,1008.8,2054.5z"/>
					<linearGradient id="SVGID_22_" gradientUnits="userSpaceOnUse" x1="1017.9374" y1="5.6093" x2="937.0265" y2="1974.4382">
						<stop  offset="0" style="stop-color:#09005D"/>
						<stop  offset="1" style="stop-color:#1A0F91"/>
					</linearGradient>
					<path class="st24" d="M802.3,2877.1c-2.6,0-65.2-0.5-86.2-40.1c-14.4-27-5.5-64.8,26.5-112.2c96.4-143,347.9-236.7,358.6-240.6
						c3.1-1.1,6.5,0.5,7.6,3.5c1.1,3.1-0.4,6.5-3.5,7.6c-2.6,0.9-258.6,96.3-352.8,236.1c-29.3,43.5-38,77.1-25.9,99.9
						c17.7,33.3,75.1,33.8,75.7,33.8c3.3,0,6,2.7,6,6C808.3,2874.4,805.6,2877.1,802.3,2877.1z"/>
					<g>
						
							<linearGradient id="SVGID_23_" gradientUnits="userSpaceOnUse" x1="1539.4092" y1="-642.1723" x2="1798.4233" y2="-642.1723" gradientTransform="matrix(7.160000e-02 -0.9974 0.9974 7.160000e-02 1854.1215 4752.749)">
							<stop  offset="0" style="stop-color:#FEBBBA"/>
							<stop  offset="1" style="stop-color:#FF928E"/>
						</linearGradient>
						<path class="st25" d="M786.1,3132.8c0,0-67.6-111.7,21.4-245.2l597.6,98.9c0,0,286.1-48.4,299.7-47.4
							c13.7,1,200.4,116,200.4,116s-6.3,13.3-50.7,10.9c-44.4-2.5-15.3,5.4-15.3,5.4l-1.6,22.4c0,0-30.9,7.1-55.7-19.3
							c-24.8-26.4-93.8-39.2-93.8-39.2s-146.6,108.3-290.6,55.9L786.1,3132.8z"/>
					</g>
				</g>
				<g>
					<g>
						<linearGradient id="SVGID_24_" gradientUnits="userSpaceOnUse" x1="1620.1069" y1="4095.2676" x2="2435.5581" y2="4095.2676">
							<stop  offset="0" style="stop-color:#9CFFFB"/>
							<stop  offset="1" style="stop-color:#9BFFFA"/>
						</linearGradient>
						<path class="st26" d="M1655.6,5018c-4.7,0-9.4-1-14-3c-18-7.9-26.3-29.3-18.6-47.8l744.4-1772.7c7.7-18.4,28.6-27,46.6-19
							c18,7.9,26.3,29.3,18.6,47.8L1688.2,4996C1682.4,5009.7,1669.4,5018,1655.6,5018z"/>
						<linearGradient id="SVGID_25_" gradientUnits="userSpaceOnUse" x1="1714.2706" y1="4095.2642" x2="2529.7214" y2="4095.2642">
							<stop  offset="0" style="stop-color:#9CFFFB"/>
							<stop  offset="1" style="stop-color:#9BFFFA"/>
						</linearGradient>
						<path class="st27" d="M2494.2,5018c-13.8,0-26.8-8.2-32.6-22l-744.4-1772.7c-7.7-18.4,0.6-39.8,18.6-47.8
							c18-7.9,38.9,0.6,46.6,19l744.4,1772.7c7.7,18.4-0.6,39.8-18.6,47.8C2503.7,5017,2498.9,5018,2494.2,5018z"/>
					</g>
					<linearGradient id="SVGID_26_" gradientUnits="userSpaceOnUse" x1="766.7366" y1="4712.291" x2="3091.9861" y2="1962.6578">
						<stop  offset="0" style="stop-color:#09005D"/>
						<stop  offset="1" style="stop-color:#1A0F91"/>
					</linearGradient>
					<path class="st28" d="M3044.9,3141.6c1.1-11-0.4-22.4-4-31c-3.6-8.6-9-13.6-14.7-13.6h-1929c-7.5,0-14.5,7.5-18.5,19.9
						c-4,12.4-4.6,28-1.4,41.4l20.9,88.9c4.8,20.4,15.2,33.4,26.6,33.4h1888.2c10.6,0,19.7-14.8,21.8-35.3L3044.9,3141.6z"/>
				</g>
			</g>
		</g>
		<g>
			<path class="st4" d="M2210.5,1000.5c-252.5,120.6-418.4,371.5-222.3,359.8c368.2-22,119.7,183.1,313.3,177
				c193.6-6,493.3-47.3,689.5-250.5c196.1-203.2,5.5-251.8-74-243.9C2655.2,1068.8,3001.6,622.9,2210.5,1000.5z"/>
			<path class="st4" d="M2125,1637.2c0.5,28.6,21.6,75.5,68.8,74.7c47.3-0.9,102.8-49.2,102.3-77.8c-0.5-28.6-39.3-51.1-86.5-50.2
				C2162.3,1584.7,2124.5,1608.6,2125,1637.2z"/>
			<path class="st4" d="M2054.1,1752.4c0.3,13.8,12.4,24.9,27.2,24.6c14.8-0.3,44-15,43.7-28.8c-0.3-13.8-18.6-27.7-33.3-27.4
				C2076.9,1721,2053.8,1738.6,2054.1,1752.4z"/>
		</g>
		<g>
			<g>
				<g>
					<path class="st3" d="M2673.1,2131.9c-41-97.6-189.4-393.6-451.9-302.2c-3.9,1.3-3.4,7,0.6,7.7
						c57.9,10.7,272.4,64.9,444.4,298.4C2669,2139.6,2674.9,2136.3,2673.1,2131.9z"/>
					<path class="st3" d="M2670.9,2138c-59-55.6-234.8-270.8-468.1-172.5c-2.6,1.1-2,4.9,0.7,5.2c57.7,6.1,344.1,42.4,466.3,172
						C2673,2146.2,2674.3,2141.3,2670.9,2138z"/>
					<path class="st3" d="M2665.3,2113.6c-5.6-73.6-38.5-351.4-217.4-408.8c-1.3-0.4-2.4,1.1-1.6,2.2
						c21.6,30.4,178.4,255.1,216.3,407C2662.9,2115.7,2665.4,2115.3,2665.3,2113.6z"/>
					<path class="st3" d="M2683.1,2197.9c1.6,0.9,3.1-1.2,1.8-2.4c-31.6-31.5-162.5-147.2-328.6-90.2
						C2168.1,2169.8,2497.7,2097.3,2683.1,2197.9z"/>
					<path class="st3" d="M2678.8,2140.3c-0.4,5.5-8.2,6.2-9.4,0.8c-19.8-87.3-61.9-328,60.5-389.2
						C2874.8,1679.4,2698.5,1854.9,2678.8,2140.3z"/>
					<path class="st3" d="M2670.3,2139.6c20.6-53.6,99.9-220,264.9-130.1c2.8,1.5,1.9,5.8-1.3,6c-37.1,2.3-160.6,18.4-258.3,127.3
						C2673.3,2145.4,2669.1,2142.9,2670.3,2139.6z"/>
					<path class="st3" d="M2674.8,2153.1c7.6-33.1,47.1-99.5,247.9-38.7c1.2,0.4,0.9,2.2-0.4,2c-39.5-4.1-172.8-13.2-238.2,42.3
						C2679.9,2162.4,2673.5,2158.5,2674.8,2153.1z"/>
				</g>
				<path class="st3" d="M2732.6,3058.9l0.1-6.8l0-7.3l-0.1-14.6l-0.2-29.2l-0.8-58.4c-0.5-38.9-1.3-77.8-2.1-116.7
					c-1.8-77.8-4-155.5-7.5-233.1c-3.5-77.6-8.3-155.2-15.8-232.5c-3.8-38.6-8.4-77.2-14.7-115.4c-6.1-38.3-14-76.3-26.8-112.9
					l3.5-1.4c7.6,18,14.3,36.5,19.3,55.5l3.9,14.2c1.2,4.7,2.3,9.5,3.4,14.3l3.4,14.3l3,14.3c7.8,38.3,13.8,77,18.5,115.7
					c4.8,38.7,8.4,77.6,11.6,116.5c3,38.9,5.2,77.8,7.1,116.8c1.7,38.9,2.9,77.9,3.9,116.9c0.6,39,1.2,77.9,1,116.9
					c0,39-0.6,77.9-1.6,116.9l-2.1,58.4l-1.3,29.2l-0.9,14.6l-0.5,7.3c-0.2,2.5-0.3,4.7-0.8,7.8L2732.6,3058.9z"/>
				<g>
					<path class="st3" d="M2800.5,2371c27.4-65.4,126.9-263.7,302.7-202.5c2.6,0.9,2.3,4.7-0.4,5.2
						c-38.8,7.2-182.5,43.5-297.7,199.9C2803.2,2376.2,2799.3,2373.9,2800.5,2371z"/>
					<path class="st3" d="M2802,2375.1c39.5-37.3,157.3-181.4,313.6-115.6c1.7,0.7,1.4,3.3-0.5,3.5
						c-38.6,4.1-230.5,28.4-312.4,115.3C2800.6,2380.6,2799.7,2377.3,2802,2375.1z"/>
					<path class="st3" d="M2805.7,2358.8c3.8-49.3,25.8-235.4,145.7-273.8c0.9-0.3,1.6,0.7,1.1,1.5
						c-14.4,20.4-119.5,170.9-144.9,272.7C2807.3,2360.2,2805.6,2359.9,2805.7,2358.8z"/>
					<path class="st3" d="M2793.8,2415.2c-1.1,0.6-2.1-0.8-1.2-1.6c21.2-21.1,108.8-98.6,220.2-60.4
						C3138.8,2396.4,2918,2347.8,2793.8,2415.2z"/>
					<path class="st3" d="M2796.7,2376.6c0.3,3.7,5.5,4.1,6.3,0.5c13.3-58.5,41.5-219.7-40.5-260.7
						C2665.4,2067.9,2783.5,2185.4,2796.7,2376.6z"/>
					<path class="st3" d="M2802.4,2376.2c-13.8-35.9-66.9-147.4-177.4-87.1c-1.9,1-1.3,3.9,0.9,4c24.9,1.6,107.6,12.3,173,85.3
						C2800.4,2380.1,2803.2,2378.4,2802.4,2376.2z"/>
					<path class="st3" d="M2799.4,2385.2c-5.1-22.2-31.5-66.6-166.1-25.9c-0.8,0.2-0.6,1.5,0.2,1.4c26.4-2.7,115.8-8.8,159.6,28.4
						C2795.9,2391.4,2800.2,2388.8,2799.4,2385.2z"/>
				</g>
				<path class="st3" d="M2773.5,3060.1c-0.4-2.5-0.4-4.1-0.6-6l-0.3-5.5l-0.6-10.9c-0.4-7.3-0.7-14.6-0.9-21.8l-1.4-43.7
					c-1-29.1-1-58.3-1.2-87.4c-0.1-29.1-0.1-58.3,0.4-87.4c0.6-29.1,1.3-58.3,2.6-87.4c1.3-29.1,2.8-58.3,4.9-87.4
					c2.2-29.1,4.8-58.2,8.4-87.2l2.8-21.7l3.3-21.7c2.3-14.4,4.8-28.9,7.9-43.2c1.4-7.2,3.1-14.3,4.9-21.4c0.9-3.6,1.7-7.1,2.7-10.7
					l3.1-10.6c4-14.1,9-28,15-41.4l3.5,1.4c-4.4,13.8-8.4,27.6-11.3,41.8l-2.3,10.6c-0.7,3.5-1.3,7.1-1.9,10.7l-1.9,10.7l-1.7,10.7
					c-1.1,7.1-2.2,14.3-3.1,21.5c-0.9,7.2-2.1,14.3-2.8,21.5c-1.7,14.4-3.3,28.8-4.8,43.2c-5.6,57.7-9.6,115.7-12.4,173.7
					c-2.8,58-4.8,116.1-6.3,174.3c-0.8,29.1-1,58.2-1.6,87.2l-0.5,43.6l-0.1,21.8l0,10.9l0.1,10.4L2773.5,3060.1z"/>
				<g>
					<path class="st3" d="M2605.3,2492c-35.1-57.2-155-228.1-291.9-141.6c-2,1.3-1.1,4.8,1.3,4.8c34,0.5,161.6,11.3,287.2,140
						C2604,2497.3,2606.9,2494.6,2605.3,2492z"/>
					<path class="st3" d="M2604.8,2496.1c-40.1-28.7-165.6-145.5-285.2-57.9c-1.3,1-0.6,3.3,1,3.2c33.3-2.5,199.3-10.8,284.1,57.8
						C2607,2501,2607.1,2497.8,2604.8,2496.1z"/>
					<path class="st3" d="M2598.7,2481.3c-12.2-45.9-64.8-217.9-172.7-234.6c-0.8-0.1-1.2,0.9-0.7,1.6
						c15.9,16.9,131.9,141.7,171.8,233.6C2597.6,2482.9,2599,2482.4,2598.7,2481.3z"/>
					<path class="st3" d="M2619.1,2532.6c1,0.4,1.6-1.1,0.7-1.7c-21.7-16.4-109.7-75.3-196.4-21.1
						C2325.1,2571.1,2502.1,2489.3,2619.1,2532.6z"/>
					<path class="st3" d="M2609.6,2496.7c0.5,3.5-3.9,4.8-5.2,1.5c-21.9-53-75.1-200.5-13.5-252.6
						C2663.7,2183.9,2585.7,2314.1,2609.6,2496.7z"/>
					<path class="st3" d="M2604.7,2497.2c5-36.1,29.4-150,133.5-111.2c1.8,0.7,1.8,3.4,0,3.9c-20.7,5.5-88.3,29.1-130.1,108.7
						C2607.1,2500.5,2604.4,2499.4,2604.7,2497.2z"/>
					<path class="st3" d="M2608.9,2505.2c0.2-21.7,14.4-68,135.1-51.5c0.7,0.1,0.8,1.3,0,1.3c-22.8,1.7-99.1,10.6-129.2,52.8
						C2612.9,2510.5,2608.8,2508.7,2608.9,2505.2z"/>
				</g>
				<path class="st3" d="M2751.6,3071.4l-3.4-18l-3.6-18.4l-7.5-36.8l-15.4-73.4c-5.2-24.5-10.7-48.9-16.2-73.2
					c-5.4-24.4-11-48.8-16.8-73.1c-11.7-48.6-24.4-96.9-38.2-144.9l-5.3-18l-5.5-17.9c-3.7-11.9-7.4-23.8-11.5-35.6
					c-8.3-23.5-16.8-46.9-28.4-68.9l3.2-1.9c6.8,10.6,13,21.7,18.3,33.1c2.8,5.7,5.5,11.4,7.8,17.2c2.5,5.8,4.9,11.6,7.1,17.5
					c9.2,23.4,17.4,47.2,24.8,71.2c14.7,48,26.8,96.7,38.2,145.5c5.6,24.4,11.1,48.9,16.4,73.4c5,24.5,9.9,49.1,14.6,73.7
					c4.7,24.6,9.3,49.2,13.4,73.9l6.1,37.1l2.9,18.6l1.3,9.3l0.6,4.7c0.2,1.6,0.5,3,0.6,5.1L2751.6,3071.4z"/>
			</g>
			<g>
				<linearGradient id="SVGID_27_" gradientUnits="userSpaceOnUse" x1="2827.7937" y1="3309.0391" x2="2768.436" y2="2996.062">
					<stop  offset="0" style="stop-color:#4F52FF"/>
					<stop  offset="1" style="stop-color:#4042E2"/>
				</linearGradient>
				<path class="st29" d="M2664.7,2828.1h159.9c10.5,0,18.2,15.8,15.9,32.3c-10.2,71.8-22.5,144.6-47.6,218.6
					c-4.6,13.7-13.5,22.2-23.1,22.2h-52.2c-9.5,0-18.2-8.4-22.7-21.9c-20.1-60.5-39.4-132.6-49-214.5
					C2643.8,2845.7,2652.7,2828.1,2664.7,2828.1z"/>
			</g>
		</g>
	</g>
	<linearGradient id="SVGID_28_" gradientUnits="userSpaceOnUse" x1="1814.8442" y1="800.9917" x2="3103.2527" y2="800.9917">
		<stop  offset="0" style="stop-color:#09005D"/>
		<stop  offset="1" style="stop-color:#1A0F91"/>
	</linearGradient>
	<path class="st30" d="M2404.8,900.8c0,0,112.6-109.5,148.9-27.5s-105,137.8-105,137.8s-134.8-0.3-127.7-110.3
		s83.3-159.7,135.1-154.4c51.7,5.3,119.1-47.2,141.6,30s82.4,236.4,0,266.5s-201.4,71-276.6-31.7c-41.3-56.4-75.7-116.1-89.7-169.2
		c-11.5-43.7-9.2-82.8,14.4-112c52.4-64.5,150.7-95.8,270-84.1s201.8-6.6,198,100.5s-19.4,201.8-60.3,283.7
		c-29.7,59.6-59.6,87.9-137.7,90c-29.3,0.8-65.4-2.1-110.9-8.4c-10.4-1.4-20.2-2.8-29.5-4.1c-140.9-19.5-170.3-26.3-204.9-144.2
		c-36.9-125.6-60.4-144,0-217.1c60.4-73.1,39.4-144.9,210.9-163.8c171.5-19,215.8-99.8,272.2,12.1
		c56.5,111.9,166.4,82.2,122.7,201.9s53.8,182.8-62.4,214.6s-510.7-403.4-291-327.5c219.8,75.9,247.1-0.1,230.7,154.6
		c-16.4,154.7-345.3,692.5-496.3,334.4c-151-358.1-383.1-350.3-121.1-483.5s754.1-59.2,822.5,107.5
		c68.4,166.7-81.9,248.3-205.2,336.8c-123.2,88.4-543.8-598.7-461.5-635.2s108.3-110.8,361.8-18.7s143.3,684.9,0,776.3
		c-143.3,91.4-412.8,59.3-502.7-116.6c-89.8-175.9,690.8-694.2,768.4-556.5s156.5,580.3-105.8,599.9s-880.1-224.8-842.3-386
		s811.4-330.9,854.9-317.1s311.3,740.8,154.9,761.1s-830.2-505.8-807.7-658s520.1-466.7,545.7-248.7
		c25.6,218,68.2,1042.2-29.1,1035.5c-97.3-6.6-861.3-536.8-763.6-639.4s1106.4-169.3,1133.4-46.4s-806.6,667-721.6,327.6
		s469.3-545.5,537.8-531.8c68.6,13.7-27.8,931.3-394.9,693.1s282.1-822.7,387.8-782.4c105.6,40.3,338.6,357.2,300.7,492.5
		s-1180.1,282.2-1168.4,147.4s15-427.5,112.3-517.5c97.3-90,663.9-212.7,762.4-178.7s307.5,745.5,200.1,738.7
		c-107.4-6.8-936,175.5-1005.4,66.5c-69.4-109-17-737.9,80.3-774.2c97.3-36.3,1033.8,143.9,1048.4,281
		c14.7,137.1-184.1,672-305.6,674.8c-121.5,2.9-697.9-457-727.9-544.4c-29.9-87.3,21.1-570.2,254.9-542.6s628,20.2,613.6,198.6"/>
</g>
</svg>
