<?xml version="1.0" encoding="utf-8"?>
<!-- Generator: Adobe Illustrator 22.0.0, SVG Export Plug-In . SVG Version: 6.00 Build 0)  -->
<svg version="1.1" xmlns="http://www.w3.org/2000/svg" xmlns:xlink="http://www.w3.org/1999/xlink" x="0px" y="0px"
	 viewBox="0 0 3710 3710" style="enable-background:new 0 0 3710 3710;" xml:space="preserve">
<style type="text/css">
	.st0{fill:url(#SVGID_1_);}
	.st1{fill:#BDD0FB;}
	.st2{fill:#FFFFFF;}
	.st3{fill:#91B3FA;}
	.st4{fill:url(#SVGID_2_);}
	.st5{opacity:0.6;fill:#FFFFFF;}
	.st6{fill:url(#SVGID_3_);}
	.st7{fill:url(#SVGID_4_);}
	.st8{fill:url(#SVGID_5_);}
	.st9{fill:#7D97F4;}
	.st10{fill:url(#SVGID_6_);}
	.st11{fill:url(#SVGID_7_);}
	.st12{fill:url(#SVGID_8_);}
	.st13{fill:url(#SVGID_9_);}
	.st14{fill:url(#SVGID_10_);}
	.st15{fill:url(#SVGID_11_);}
	.st16{fill:url(#SVGID_12_);}
	.st17{fill:url(#SVGID_13_);}
	.st18{fill:url(#SVGID_14_);}
	.st19{fill:url(#SVGID_15_);}
	.st20{fill:url(#SVGID_16_);}
	.st21{fill:url(#SVGID_17_);}
	.st22{fill:url(#SVGID_18_);}
	.st23{fill:url(#SVGID_19_);}
	.st24{fill:url(#SVGID_20_);}
	.st25{fill:url(#SVGID_21_);}
	.st26{fill:url(#SVGID_22_);}
	.st27{fill:url(#SVGID_23_);}
	.st28{fill:url(#SVGID_24_);}
	.st29{fill:url(#SVGID_25_);}
	.st30{fill:url(#SVGID_26_);}
	.st31{fill:url(#SVGID_27_);}
	.st32{fill:url(#SVGID_28_);}
	.st33{fill:url(#SVGID_29_);}
	.st34{fill:url(#SVGID_30_);}
	.st35{fill:url(#SVGID_31_);}
	.st36{fill:url(#SVGID_32_);}
	.st37{fill:url(#SVGID_33_);}
	.st38{fill:url(#SVGID_34_);}
	.st39{fill:url(#SVGID_35_);}
	.st40{fill:url(#SVGID_36_);}
	.st41{fill:url(#SVGID_37_);}
	.st42{fill:url(#SVGID_38_);}
	.st43{fill:url(#SVGID_39_);}
	.st44{fill:url(#SVGID_40_);}
	.st45{fill:url(#SVGID_41_);}
	.st46{fill:url(#SVGID_42_);}
	.st47{fill:url(#SVGID_43_);}
	.st48{fill:url(#SVGID_44_);}
	.st49{fill:url(#SVGID_45_);}
	.st50{fill:url(#SVGID_46_);}
	.st51{fill:url(#SVGID_47_);}
	.st52{fill:url(#SVGID_48_);}
	.st53{fill:url(#SVGID_49_);}
	.st54{fill:url(#SVGID_50_);}
	.st55{fill:url(#SVGID_51_);}
	.st56{fill:url(#SVGID_52_);}
	.st57{fill:url(#SVGID_53_);}
	.st58{fill:url(#SVGID_54_);}
	.st59{fill:url(#SVGID_55_);}
	.st60{fill:url(#SVGID_56_);}
	.st61{fill:url(#SVGID_57_);}
	.st62{fill:url(#SVGID_58_);}
	.st63{fill:url(#SVGID_59_);}
	.st64{fill:url(#SVGID_60_);}
</style>
<g id="Background">
</g>
<g id="Illustration">
	<g>
		
			<linearGradient id="SVGID_1_" gradientUnits="userSpaceOnUse" x1="1367.3618" y1="3654.147" x2="-570.9417" y2="1590.792" gradientTransform="matrix(-1 0 0 1 1596.9999 0)">
			<stop  offset="0" style="stop-color:#DAE3FE"/>
			<stop  offset="1" style="stop-color:#E9EFFD"/>
		</linearGradient>
		<path class="st0" d="M811.6,2826.3c71.6,73.8,135.6,117.1,184.6,149.8c478.1,319.2,1024.6,227.2,1193.5,195.8
			c272.6-50.7,502.7-86.5,700.4-265.1c449.2-405.9,427.4-1252.6,84.1-1777.1c-40.7-62.2-383.5-570.3-931.1-641.9
			c-13.4-1.8-23.4-2.7-32.1-3.7c-84.7-9-609.7-56.3-1037.8,302.3c-61.3,51.3-159.9,143.9-251.3,285.2
			C387.4,1588.2,386.4,2388,811.6,2826.3z"/>
		<g>
			<g>
				<path class="st1" d="M1227.6,2126.8c0,0,8.6-359.6-157.1-455.8c-165.6-96.2-480.5-156.4-492.3-672.7
					c-6.9-302.3-14.4-434.4-19.4-492c-2-22.5,18-40.6,40.2-36.4c156.8,29.5,666.4,151.2,773.2,498.9
					C1498.9,1381,1227.6,2126.8,1227.6,2126.8z"/>
				<path class="st2" d="M720.4,613.5c172.2,153.5,371.2,425.3,477.4,697.1c13.6,44.8,53.5,140,70.8,309.3
					c15.5,141.1,7.8,290.3-11,389c-1.2,6.2-7.2,10.3-13.4,9.2c-10.7-2-9.3-13.6-9.2-13.2c21.4-168.7,12.5-378.6-36.5-568
					c-62.6-232.6-202.4-458.1-346.9-649.3l-14.9-18.8C724.6,624.7,701,623.7,711.5,613.6C714,611.3,717.9,611.2,720.4,613.5z"/>
			</g>
			<g>
				<path class="st3" d="M1496.6,2737.2c22.4,11-212.1-283.9-285.6-747.1c-34.6-218.3-35.1-491.7-159.4-597.1
					c-103.5-87.7-455.6-32.3-570.8-11.3c-14.4,2.6-19.2,20.8-8,30.2C528,1458.3,643.2,1568.6,677,1678
					c81.3,263.2,180.9,244,302.6,262.9c124.8,19.4,192.6,49.3,252.9,247.2C1292.7,2386.1,1432.9,2706,1496.6,2737.2z"/>
				<path class="st2" d="M642.8,1443.1c147,6.2,304.8,73.2,384.9,199l7.6,12c17.5,28.1,116.4,228.2,171.3,394.1
					c0.7,2.1-0.4,4.3-2.5,5c-3.5,1.2-5.3-2.7-4.9-2.4c-38.3-93.7-93.3-212.5-137.1-301.3c-47-96.9-79.8-162.6-186.9-225.4
					c-119.2-67.7-233.1-74.7-232.8-74.6c-1.7-0.2-3-1.7-2.8-3.5C639.7,1444.2,641.2,1443,642.8,1443.1z"/>
			</g>
		</g>
		<g>
			<linearGradient id="SVGID_2_" gradientUnits="userSpaceOnUse" x1="2369.4185" y1="-271.8616" x2="1999.2559" y2="2709.6123">
				<stop  offset="0" style="stop-color:#4F52FF"/>
				<stop  offset="1" style="stop-color:#4042E2"/>
			</linearGradient>
			<path class="st4" d="M1329.6,773l1458.2,17.6c80.4,1,146,64.8,149.1,145.2l82.1,2115.4c2.4,62.9-47.7,115.3-110.6,115.7
				l-1671.6,10.2c-59.2,0.4-107.1-47.9-106.4-107L1156,942.4C1157.2,847.7,1234.9,771.9,1329.6,773z"/>
			<g>
				<path class="st3" d="M1334.3,756c198.8,29.4,882.5,121.2,1449.2,84.5c25.8-1.7,48,18.2,49.1,44l87.3,2124.9
					c1.2,29.1-21.3,53.8-50.5,55.1c-238.3,11.2-1219.5,53.9-1568.9,13c-21.3-2.5-37.2-20.6-37.1-42l13.8-2230.6
					C1277.4,774.6,1304.3,751.5,1334.3,756z"/>
				<path class="st5" d="M1354.9,811.3c191.3,28.3,849.3,116.6,1394.6,81.4c24.9-1.6,46.2,17.5,47.2,42.4l84,2044.9
					c1.2,28-20.5,51.7-48.6,53.1c-229.3,10.8-1173.6,51.8-1509.8,12.5c-20.5-2.4-35.8-19.8-35.7-40.4L1300,858.4
					C1300.2,829.3,1326.1,807,1354.9,811.3z"/>
				<path class="st5" d="M1460.9,1055.3c165.6,20.2,735.1,83.4,1206.9,59.8c21.5-1.1,40,12.3,40.9,29.8l76.7,1433.5
					c1.1,19.7-17.7,36.2-41.9,37.1c-198.4,7.1-1015.4,34-1306.3,5.8c-17.7-1.7-31-14-30.9-28.4l7.2-1504.6
					C1413.5,1067.8,1435.9,1052.3,1460.9,1055.3z"/>
			</g>
			
				<linearGradient id="SVGID_3_" gradientUnits="userSpaceOnUse" x1="1439.4165" y1="-669.3025" x2="778.1771" y2="200.5424" gradientTransform="matrix(0.918 0.3967 -0.3967 0.918 831.0952 440.8249)">
				<stop  offset="0" style="stop-color:#09005D"/>
				<stop  offset="1" style="stop-color:#1A0F91"/>
			</linearGradient>
			<path class="st6" d="M2152.6,494.7c-52.2-37.3-98-37.1-130.4-28c-29.5,8.3-48.9,36.5-46.5,67.1l12.1,151.9l165.3,16.7
				C2153,702.4,2255,567.8,2152.6,494.7z M2078.3,616.2c-22.8-0.3-41-19-40.8-41.8c0.3-22.8,19-41,41.8-40.8
				c22.8,0.3,41,19,40.8,41.8C2119.8,598.3,2101.1,616.5,2078.3,616.2z"/>
			<g>
				<path class="st1" d="M2005.1,621.4c-1.7,0-3.2-1.3-3.4-3.1l-1.9-24.2c-0.1-1.9,1.2-3.5,3.1-3.6c1.9-0.1,3.5,1.2,3.6,3.1
					l1.9,24.2c0.1,1.9-1.2,3.5-3.1,3.6C2005.3,621.4,2005.2,621.4,2005.1,621.4z M2001.4,574c-1.7,0-3.2-1.3-3.4-3.1l-1.5-18.4
					c-2.3-28.8,16.1-55.4,43.8-63.2c19.7-5.6,40-6.1,60.2-1.7c1.8,0.4,3,2.2,2.6,4c-0.4,1.8-2.2,3-4,2.6
					c-19.1-4.2-38.3-3.6-56.9,1.6c-24.6,6.9-41,30.6-39,56.2l1.5,18.4c0.1,1.9-1.2,3.5-3.1,3.6C2001.5,574,2001.4,574,2001.4,574z"
					/>
			</g>
			
				<linearGradient id="SVGID_4_" gradientUnits="userSpaceOnUse" x1="1828.5374" y1="191.5657" x2="1157.7961" y2="1073.9099" gradientTransform="matrix(1 1.210000e-02 -1.210000e-02 1 564.6042 122.0899)">
				<stop  offset="0" style="stop-color:#09005D"/>
				<stop  offset="1" style="stop-color:#1A0F91"/>
			</linearGradient>
			<path class="st7" d="M1760.8,781l0.9-76.3c0.3-26.3,22.4-47.2,48.7-46l525.8,24.4c23.3,1.1,42,19.7,43.1,43.1l3.5,73.4
				L1760.8,781z"/>
			<path class="st1" d="M1958.1,688.7C1958.1,688.7,1958.1,688.7,1958.1,688.7l-22.7-0.3c-1.9,0-3.3-1.5-3.3-3.4
				c0-1.9,1.6-3.4,3.4-3.3l22.6,0.3c1.9,0,3.3,1.5,3.3,3.4C1961.5,687.2,1960,688.7,1958.1,688.7z"/>
			<path class="st1" d="M1789.6,756.8C1789.6,756.8,1789.6,756.8,1789.6,756.8c-1.9,0-3.4-1.5-3.4-3.4l0.4-30.9
				c0.1-11.4,4.7-22,12.8-30c8.1-8,19-12.2,30.3-12.1l83.2,1c1.9,0,3.3,1.5,3.3,3.4c0,1.9-1.5,3.3-3.4,3.3l-83.2-1
				c-0.2,0-0.3,0-0.4,0c-9.4,0-18.3,3.6-25.1,10.2c-6.9,6.7-10.7,15.7-10.8,25.3l-0.4,30.9C1792.9,755.3,1791.4,756.8,1789.6,756.8z
				"/>
			<linearGradient id="SVGID_5_" gradientUnits="userSpaceOnUse" x1="2069.6685" y1="-8.0452" x2="2062.938" y2="961.0989">
				<stop  offset="0" style="stop-color:#53D8FF"/>
				<stop  offset="1" style="stop-color:#3840F7"/>
			</linearGradient>
			<path class="st8" d="M1596.3,751.1l919.9,11.1c33.1,0.4,61.1,24.5,66.3,57.2l0.7,4.5c5.7,35.8-22.1,68.1-58.4,67.7l-943.8-11.4
				c-21.7-0.3-38.7-18.6-37.4-40.2l2.5-42.2C1547.8,771.3,1569.8,750.8,1596.3,751.1z"/>
			<path class="st5" d="M2239.8,2772.1H1413c-4.8,0-8.6-3.9-8.6-8.6v-40.7c0-4.8,3.9-8.6,8.6-8.6h826.8c4.8,0,8.6,3.9,8.6,8.6v40.7
				C2248.4,2768.2,2244.5,2772.1,2239.8,2772.1z"/>
			<path class="st5" d="M2237.3,2870.8h-826.8c-4.8,0-8.6-3.9-8.6-8.6v-40.7c0-4.8,3.9-8.6,8.6-8.6h826.8c4.8,0,8.6,3.9,8.6,8.6
				v40.7C2245.9,2867,2242.1,2870.8,2237.3,2870.8z"/>
			<path class="st5" d="M2230.6,2968.9h-826.8c-4.8,0-8.6-3.9-8.6-8.6v-40.7c0-4.8,3.9-8.6,8.6-8.6h826.8c4.8,0,8.6,3.9,8.6,8.6
				v40.7C2239.2,2965.1,2235.4,2968.9,2230.6,2968.9z"/>
		</g>
		<g>
			<g>
				<rect x="655.9" y="2875.7" class="st9" width="474.5" height="84.1"/>
				<g>
					<path class="st9" d="M646.3,2869l33.8,342.1c1.4,14.5,7.3,24.7,14.2,24.7h13.5c7.7,0,14-12.8,14.5-29.3l9.8-337.5H646.3z"/>
					<path class="st9" d="M1139.6,2892.5l-33.8,342.1c-1.4,14.5-7.3,24.7-14.2,24.7h-13.5c-7.7,0-14-12.8-14.5-29.3l-9.8-337.5
						H1139.6z"/>
				</g>
				<linearGradient id="SVGID_6_" gradientUnits="userSpaceOnUse" x1="568.8995" y1="2285.813" x2="1356.1627" y2="3470.3848">
					<stop  offset="0" style="stop-color:#FF928E"/>
					<stop  offset="1" style="stop-color:#FE7062"/>
				</linearGradient>
				<path class="st10" d="M1210.9,2744.2c-5.8-11.3-14.3-17.6-22.5-17.5l-457.2,4.9c-12.9,0.1-24.9-13.7-31-35.9l-154.3-561.7
					c-10-36.6-32.1-53.7-52.3-40.6l-4.1,2.7c-11.6,7.5-21,24.2-26,45.9c-5,21.7-5.1,46.5-0.4,68.4L592.3,2804
					c12.2,55.9,39.9,92.7,71,94.1l507.6,22.9c12.6,0.6,26-8.8,35-26c9-17.2,15.4-40.7,15.4-65.3v-42.8
					C1221.2,2770.8,1216.7,2755.5,1210.9,2744.2z"/>
			</g>
			<g>
				
					<linearGradient id="SVGID_7_" gradientUnits="userSpaceOnUse" x1="-3817.7312" y1="-99.2723" x2="-3867.895" y2="48.269" gradientTransform="matrix(0.8649 -0.502 0.502 0.8649 4596.7231 325.8896)">
					<stop  offset="0" style="stop-color:#FEBBBA"/>
					<stop  offset="1" style="stop-color:#FF928E"/>
				</linearGradient>
				<path class="st11" d="M1317.2,2133.6l-6.3-10.3c-3.6-5.9-9.8-9.9-16.7-10.7l-67.3-8.3c0,0-3-7.6,9.4-16.5
					c12.4-9,5.1-23.5,5.1-23.5s-16.5,13.6-40.5,34.5c-13.7,12-18.9,28.1-20.8,39.7l-10.8,23.6c6,7.1,15.3,12.7,29.5,10.9l2.5-18.1
					C1241.6,2156.1,1280.1,2148.2,1317.2,2133.6z"/>
				<linearGradient id="SVGID_8_" gradientUnits="userSpaceOnUse" x1="1307.4922" y1="1864.6024" x2="902.8792" y2="2563.479">
					<stop  offset="0" style="stop-color:#E1473D"/>
					<stop  offset="1" style="stop-color:#E9605A"/>
				</linearGradient>
				<path class="st12" d="M1169.2,2160.3c-7.3,15.9-14.5,31.8-21.7,47.7c-9.3,20.4-17.1,46.6-32.1,63.6c-17.7,20.1-46.6,16.6-64.7-1
					c-19.8-19.3-41-37-61.5-55.6c-5.4-4.9-11-9.6-16.4-14.5l-1.5,124.9c50,22.8,105.1,61.3,162.4,41.7c15.8-5.4,31.6-15.4,40.5-29.8
					c5.4-8.6,9.9-20.6,11-30.7c0,0,13.8-135.2,13.8-135.2C1182.5,2173.4,1176.1,2168.4,1169.2,2160.3z"/>
			</g>
			<g>
				<g>
					<path class="st3" d="M1231.2,3195.5c-49.5,0-71.4-4.2-81.2-8.1c1.9,8.1,9.1,14.6,18.3,14.6h175.2c5.9,0,9.6-5.6,8.2-10.8
						C1331.8,3192.8,1289.3,3195.5,1231.2,3195.5z"/>
					
						<linearGradient id="SVGID_9_" gradientUnits="userSpaceOnUse" x1="-1724.4709" y1="2806.2136" x2="-1779.6709" y2="3187.5955" gradientTransform="matrix(1 0 0 1 3030.1194 0)">
						<stop  offset="0" style="stop-color:#09005D"/>
						<stop  offset="1" style="stop-color:#1A0F91"/>
					</linearGradient>
					<path class="st13" d="M1351.7,3191.2c-0.3-1-0.7-2-1.4-3c-13.3-17-40.2-43.8-76.6-43.3c-53.4,0.8-72.1,6.5-113.6,0.3l-9.8,32.5
						c-1,3.3-1,6.6-0.3,9.7c9.8,3.9,31.7,8.1,81.2,8.1C1289.3,3195.5,1331.8,3192.8,1351.7,3191.2z"/>
				</g>
				
					<linearGradient id="SVGID_10_" gradientUnits="userSpaceOnUse" x1="-1870.0344" y1="3133.8105" x2="-1815.3719" y2="3133.8105" gradientTransform="matrix(1 0 0 1 3030.1194 0)">
					<stop  offset="0" style="stop-color:#FEBBBA"/>
					<stop  offset="1" style="stop-color:#FF928E"/>
				</linearGradient>
				<path class="st14" d="M1172.1,3110.3l-12,40.9c0,0,26.6,12.1,50.1,2.4l4.6-35.4L1172.1,3110.3z"/>
				<g>
					<path class="st3" d="M1535.3,3169.8c-38.6,31-58.3,41.5-68.4,44.6c6.6,5.1,16.2,5.6,23.3-0.2l136.6-109.7
						c4.6-3.7,4-10.4-0.3-13.5C1611.9,3104.7,1580.5,3133.4,1535.3,3169.8z"/>
					
						<linearGradient id="SVGID_11_" gradientUnits="userSpaceOnUse" x1="-1451.0552" y1="2845.7854" x2="-1506.2551" y2="3227.1682" gradientTransform="matrix(1 0 0 1 3030.1194 0)">
						<stop  offset="0" style="stop-color:#09005D"/>
						<stop  offset="1" style="stop-color:#1A0F91"/>
					</linearGradient>
					<path class="st15" d="M1626.5,3091c-0.9-0.6-1.8-1.1-3-1.4c-21-4.9-58.6-8.8-86.7,14.4c-41.2,34-52.1,50.2-88.3,71.4l12.6,31.3
						c1.3,3.2,3.3,5.8,5.8,7.7c10.1-3.1,29.8-13.6,68.4-44.6C1580.5,3133.4,1611.9,3104.7,1626.5,3091z"/>
				</g>
				<linearGradient id="SVGID_12_" gradientUnits="userSpaceOnUse" x1="1219.4448" y1="2692.093" x2="751.6978" y2="3284.3486">
					<stop  offset="0" style="stop-color:#09005D"/>
					<stop  offset="1" style="stop-color:#1A0F91"/>
				</linearGradient>
				<path class="st16" d="M914.9,2644.4c0,0,296.5,24.2,357.4,52.8c60.8,28.6-49.6,430-49.6,430s-16.6,8-53.4-3.5
					c0,0,37.8-296.2,9.7-360.4l-321.1-52.5L914.9,2644.4z"/>
				
					<linearGradient id="SVGID_13_" gradientUnits="userSpaceOnUse" x1="6228.6685" y1="7254.2095" x2="6180.4131" y2="7228.7656" gradientTransform="matrix(1 0 0 1 3030.1194 0)">
					<stop  offset="0" style="stop-color:#FEBBBA"/>
					<stop  offset="1" style="stop-color:#FF928E"/>
				</linearGradient>
				<path class="st17" d="M1419,3119c2.8,2.5,29.5,56.4,29.5,56.4s29.7-6.4,35.8-25.3l-26.8-48.6L1419,3119z"/>
				<linearGradient id="SVGID_14_" gradientUnits="userSpaceOnUse" x1="1922.5104" y1="1805.2328" x2="1612.9208" y2="2209.0452">
					<stop  offset="0" style="stop-color:#09005D"/>
					<stop  offset="1" style="stop-color:#1A0F91"/>
				</linearGradient>
				<path class="st18" d="M736.3,2641.9c0,0-9.7,23.3-9.3,54.1c0.5,42.7,34.9,77.4,77.6,79.5l350.5,16c7.4,0.3,13.7,5.5,15.5,12.6
					c8.2,31.9,48.5,129.7,245.3,324.9c5.2,5.2,13.4,6.1,19.6,2.1l28-17.7c2.9-1.9,3.9-5.7,2.1-8.7l-204.1-348.5
					c-10.7-17.7-28-30.5-48-35.6l-298.8-76.4L736.3,2641.9z"/>
				<linearGradient id="SVGID_15_" gradientUnits="userSpaceOnUse" x1="532.9811" y1="2883.7524" x2="1073.6907" y2="2155.4502">
					<stop  offset="0" style="stop-color:#E1473D"/>
					<stop  offset="1" style="stop-color:#E9605A"/>
				</linearGradient>
				<path class="st19" d="M735.4,2640.9c0,0-3.5-173.7,31.3-337.3c12.8-60.4,46.2-114.4,94.7-152.6l16.2-12.8l81.2,33l41.7,72.1
					c23,46,17.3,145.8,0,194.2c-29,80.9-52.2,164.7-62.1,205.9C938.5,2643.4,803.9,2661.2,735.4,2640.9z"/>
				
					<linearGradient id="SVGID_16_" gradientUnits="userSpaceOnUse" x1="-2160.196" y1="2098.3838" x2="-2043.4149" y2="2098.3838" gradientTransform="matrix(1 0 0 1 3030.1194 0)">
					<stop  offset="0" style="stop-color:#FEBBBA"/>
					<stop  offset="1" style="stop-color:#FF928E"/>
				</linearGradient>
				<path class="st20" d="M933.4,2008.7L869.9,2156c0,0,20.3,45.7,91.4,27.9l25.4-101.5L933.4,2008.7z"/>
				<g>
					
						<linearGradient id="SVGID_17_" gradientUnits="userSpaceOnUse" x1="-2659.5266" y1="2474.4819" x2="-2825.9675" y2="2694.6694" gradientTransform="matrix(0.9372 -0.3487 0.3487 0.9372 2658.55 -1292.5793)">
						<stop  offset="0" style="stop-color:#FEBBBA"/>
						<stop  offset="1" style="stop-color:#FF928E"/>
					</linearGradient>
					<path class="st21" d="M1059.2,1941.6c0.8,2.1,2.4,147.1,2.4,147.1l-82.9-0.8l-22-137.3
						C956.7,1950.7,1046.4,1907.2,1059.2,1941.6z"/>
					<linearGradient id="SVGID_18_" gradientUnits="userSpaceOnUse" x1="761.6584" y1="1262.7343" x2="909.7227" y2="1693.4669">
						<stop  offset="0" style="stop-color:#09005D"/>
						<stop  offset="1" style="stop-color:#1A0F91"/>
					</linearGradient>
					<path class="st22" d="M981,1977.1l5.9,73.2c0.1,0.9,0.3,1.8,0.6,2.7c2,5.4,10.3,23.5,28.2,13.9c16.3-8.7,31.3-16.4,43.1-15.4
						c5.3,0.4,9.3,4.8,9.4,10.1c0.1,13.2-0.1,42.9-4.2,68.7c-0.8,5.2-5.6,8.9-10.9,8.5c-15.9-1.1-49.4-4.4-75.8-13.4
						c-3.6-1.2-6.2-4.2-6.8-8c-3.1-18.1-12.8-73.2-17.9-88.1c-4.8-14-24.2-18.8-32.6-20.2c-2.7-0.5-5.1-2-6.7-4.3
						c-5.5-8.1-14.8-27.6,9.3-41.7c5-2.9,6.6-9.4,3.5-14.4c-6.1-9.9-11.3-25.8,6.8-39.1c18.4-13.5,36-6,46.1,1.1
						c4.1,2.9,9.5,2.2,13.1-1.3c2-2,4.9-3.1,9.1-1.6c5.6,2,11.6-1.5,13.1-7.3c2.7-11.1,10.3-23.9,31-24.8
						c36.7-1.6,49.2,36.8,44.8,61.8c-4.4,25-44.3,24.5-65.8,17c-16.4-5.7-33.2,7.6-40.3,14.3C981.9,1970.9,980.8,1974,981,1977.1z"
						/>
					
						<linearGradient id="SVGID_19_" gradientUnits="userSpaceOnUse" x1="-2903.2961" y1="2648.8521" x2="-2769.7983" y2="2511.8867" gradientTransform="matrix(0.9372 -0.3487 0.3487 0.9372 2658.55 -1292.5793)">
						<stop  offset="0" style="stop-color:#FEBBBA"/>
						<stop  offset="1" style="stop-color:#FF928E"/>
					</linearGradient>
					<path class="st23" d="M955.2,2055.9c0,0,5.7-43.9-11.4-50.6c-17.1-6.7-38.1,3.2-26.9,31.7
						C930.9,2072.4,955.2,2055.9,955.2,2055.9z"/>
				</g>
				<linearGradient id="SVGID_20_" gradientUnits="userSpaceOnUse" x1="1295.9572" y1="1857.923" x2="891.3438" y2="2556.8003">
					<stop  offset="0" style="stop-color:#FF928E"/>
					<stop  offset="1" style="stop-color:#FE7062"/>
				</linearGradient>
				<path class="st24" d="M1128.9,2501.3c-209.2,65.7-198.1-228.8-199.5-230.9c-82.9-126.7-129.5,42.2-121.5,66
					c73.6,266.3,259,253.2,331.3,200.8C1130.3,2523.3,1128.2,2511,1128.9,2501.3z"/>
				<linearGradient id="SVGID_21_" gradientUnits="userSpaceOnUse" x1="934.0696" y1="1836.9327" x2="950.8954" y2="2425.8252">
					<stop  offset="0" style="stop-color:#FEBBBA"/>
					<stop  offset="1" style="stop-color:#FF928E"/>
				</linearGradient>
				<path class="st25" d="M968.5,2455.9c-1.2-0.4-2.2-1.1-2.9-2.2c-31.7-49.4-40.6-118-42.6-166.9c-0.1-2.9,2.2-5.4,5.1-5.5
					c2.9-0.1,5.4,2.2,5.5,5.1c1.5,38.9,8.9,111.7,40.9,161.6c1.6,2.5,0.9,5.8-1.6,7.4C971.6,2456.2,970,2456.4,968.5,2455.9z"/>
				<linearGradient id="SVGID_22_" gradientUnits="userSpaceOnUse" x1="842.2731" y1="1839.5553" x2="859.0988" y2="2428.4475">
					<stop  offset="0" style="stop-color:#FEBBBA"/>
					<stop  offset="1" style="stop-color:#FF928E"/>
				</linearGradient>
				<path class="st26" d="M910.1,2522.8c-0.7-0.2-1.3-0.5-1.8-1c-47.8-40.1-83.8-103-107.1-187.2c-0.8-2.8,0.9-5.8,3.7-6.5
					c2.8-0.8,5.8,0.9,6.5,3.7c22.6,82,57.5,143.2,103.7,181.8c2.3,1.9,2.5,5.2,0.7,7.5C914.4,2522.9,912.1,2523.5,910.1,2522.8z"/>
				
					<linearGradient id="SVGID_23_" gradientUnits="userSpaceOnUse" x1="-2267.4905" y1="3472.1191" x2="-2440.304" y2="3752.533" gradientTransform="matrix(0.9551 0.2964 -0.2964 0.9551 4409.4653 -175.8474)">
					<stop  offset="0" style="stop-color:#FEBBBA"/>
					<stop  offset="1" style="stop-color:#FF928E"/>
				</linearGradient>
				<path class="st27" d="M1252.1,2439.9c0,0-3.4,5.4-27.9,24.4c-24.5,19-49.2,29.9-30.4,3.8c18.7-26.1,9.6-39.5-11.8-11.4
					c-21.4,28.1-36.7,39-36.7,39c-5.6,2.2-11.1,4.1-16.4,5.7c-0.7,9.6,1.4,21.9,10.4,35.9c8.5-2.8,13.3-4.9,13.3-4.9
					s64.8-11.8,78.7-39.4C1245.1,2465.4,1252.1,2439.9,1252.1,2439.9z"/>
			</g>
		</g>
		<g>
			
				<linearGradient id="SVGID_24_" gradientUnits="userSpaceOnUse" x1="3468.1521" y1="1543.5161" x2="3279.8958" y2="1889.7725" gradientTransform="matrix(1 0 0 1 -463.1432 0)">
				<stop  offset="0" style="stop-color:#09005D"/>
				<stop  offset="1" style="stop-color:#1A0F91"/>
			</linearGradient>
			<path class="st28" d="M2734.4,1922.2c0,0-13-49.1,56.4-57.3c69.4-8.2,88.8,111.3,33.7,127.5
				C2769.4,2008.5,2734.4,1922.2,2734.4,1922.2z"/>
			
				<linearGradient id="SVGID_25_" gradientUnits="userSpaceOnUse" x1="3180.0664" y1="2150.9563" x2="3764.7261" y2="3004.4243" gradientTransform="matrix(1 0 0 1 -463.1432 0)">
				<stop  offset="0" style="stop-color:#E1473D"/>
				<stop  offset="1" style="stop-color:#E9605A"/>
			</linearGradient>
			<path class="st29" d="M3207.6,2181.9c-21.5-23.3-51.7-36.6-83.4-36.8l-415.4-2.9c-33.8-0.2-66,14.4-87.9,40.1
				c-22,25.7-31.5,59.7-26,93l83.2,506.2h523l36.8-513.6C3240,2236.2,3229.1,2205.2,3207.6,2181.9z"/>
			
				<linearGradient id="SVGID_26_" gradientUnits="userSpaceOnUse" x1="3020.6482" y1="2451.543" x2="3285.7605" y2="2451.543" gradientTransform="matrix(1 0 0 1 -463.1432 0)">
				<stop  offset="0" style="stop-color:#FEBBBA"/>
				<stop  offset="1" style="stop-color:#FF928E"/>
			</linearGradient>
			<polygon class="st30" points="2568.2,2426.7 2789.6,2422.1 2822.6,2481 2557.5,2469 			"/>
			<rect x="2738.9" y="2976.7" class="st9" width="370.2" height="40.4"/>
			<g>
				<path class="st9" d="M2709.9,2801.7l26.5,432.6c0.2,2.9,2.3,8.2,4.8,8.2h17.5c2.7,0,7.2-6.4,7.2-9.4v-431.4H2709.9z"/>
				<path class="st9" d="M3147.5,2801.7l-26.5,432.6c-0.2,2.9-2.3,8.2-4.8,8.2h-17.5c-2.7,0-6.5-6.4-6.5-9.4v-431.4H3147.5z"/>
			</g>
			
				<linearGradient id="SVGID_27_" gradientUnits="userSpaceOnUse" x1="1990.8911" y1="2773.7883" x2="2715.2146" y2="2770.8076" gradientTransform="matrix(1 0 0 1 -463.1432 0)">
				<stop  offset="0" style="stop-color:#FF928E"/>
				<stop  offset="1" style="stop-color:#FE7062"/>
			</linearGradient>
			<path class="st31" d="M3250.4,2768.8c0,33-26.8,59.8-59.8,59.8h-519.8c-33,0-59.8-26.8-59.8-59.8v-1.6c0-33,26.8-59.8,59.8-59.8
				h519.8c33,0,59.8,26.8,59.8,59.8V2768.8z"/>
			<g>
				
					<linearGradient id="SVGID_28_" gradientUnits="userSpaceOnUse" x1="5772.0073" y1="3484.3589" x2="5358.4365" y2="3720.4194" gradientTransform="matrix(-0.9155 0.4023 0.4023 0.9155 6087.5176 -2678.031)">
					<stop  offset="0" style="stop-color:#FEBBBA"/>
					<stop  offset="1" style="stop-color:#FF928E"/>
				</linearGradient>
				<path class="st32" d="M2416.6,3168.5c0.4-0.4,57.1-539.6,72.5-594.8c2.6-9.3,9.7-16.6,19-19.4l72.3-22l155.9,91.6l-167.3,28.3
					c53.7,86.2-58.9,298.8-96.2,374.7c-3.8,7.7-0.3,17,7.6,20.3l34.5,14.4c-21.5,56.4-55.2,101.4-100.7,135.3L2416.6,3168.5z"/>
				
					<linearGradient id="SVGID_29_" gradientUnits="userSpaceOnUse" x1="2517.2493" y1="2977.3127" x2="2484.7122" y2="3476.2146" gradientTransform="matrix(0.6441 -0.765 0.765 0.6441 -1552.0348 3040.5171)">
					<stop  offset="0" style="stop-color:#09005D"/>
					<stop  offset="1" style="stop-color:#1A0F91"/>
				</linearGradient>
				<path class="st33" d="M2495.3,3054.3c0,0,17.2-1.8,28.3,9.4c5.3,5.4,5.8,13.8,2,20.3c-17,28.7-73.7,122.2-106.6,150.1
					c-2.7,2.3-6.9,0.8-7.6-2.7c-1.9-9.6-3.4-30,5.6-64.5l-0.2,4.5c-0.3,5.7,6.9,8.3,10.3,3.7
					C2446.1,3149.7,2483.9,3095.8,2495.3,3054.3z"/>
			</g>
			
				<linearGradient id="SVGID_30_" gradientUnits="userSpaceOnUse" x1="5935.1641" y1="3208.415" x2="7385.3882" y2="2300.5525" gradientTransform="matrix(-0.9615 0.2748 0.2748 0.9615 7100.771 -1920.5399)">
				<stop  offset="0" style="stop-color:#FEBBBA"/>
				<stop  offset="1" style="stop-color:#FF928E"/>
			</linearGradient>
			<path class="st34" d="M2522.5,3192.4c0.4-0.4,12.4-104.9,12.8-105.3c-26.3-226.7,7.5-436.9,19.1-493c2-9.4,8.6-17.2,17.6-20.6
				l70.6-26.9l166.5,128.1l-169.8-7.7c59.5,82.3-38.4,302.1-70.5,380.4c-3.3,7.9,0.9,17,9,19.7l35.4,12
				c-17.6,57.8-48.2,104.9-91.2,141.8L2522.5,3192.4z"/>
			
				<linearGradient id="SVGID_31_" gradientUnits="userSpaceOnUse" x1="2513.0957" y1="2358.1184" x2="2480.5586" y2="2857.0225" gradientTransform="matrix(0.5905 -0.807 0.807 0.5905 -943.1511 3697.0984)">
				<stop  offset="0" style="stop-color:#09005D"/>
				<stop  offset="1" style="stop-color:#1A0F91"/>
			</linearGradient>
			<path class="st35" d="M2593.3,3073.2c0,0,17.1-2.9,28.8,7.5c5.6,5,6.8,13.4,3.4,20.1c-15,29.8-65.3,127-96.2,157
				c-2.5,2.5-6.8,1.2-7.7-2.2c-2.6-9.5-5.4-29.7,1.2-64.8l0.1,4.5c0.1,5.7,7.5,7.8,10.6,3
				C2550.7,3171.7,2584.8,3115.4,2593.3,3073.2z"/>
			<linearGradient id="SVGID_32_" gradientUnits="userSpaceOnUse" x1="3241.5928" y1="1639.4166" x2="3012.7661" y2="2167.7361">
				<stop  offset="0" style="stop-color:#09005D"/>
				<stop  offset="1" style="stop-color:#1A0F91"/>
			</linearGradient>
			<path class="st36" d="M3087,2672.9c-5.6-46.2-73.7-147.5-73.7-147.5s-264.2-8.6-295.1,3.4c-23.9,9.3-121.7,4-164.2,1.2
				c-1.6-0.1-3.1,1-3.5,2.5c-0.4,1.6,0.4,3.2,1.9,3.8c103.9,45.2,113.9,71,127.6,158.6c0,0,104.6,63.6,316.7,46
				C3068.2,2735.1,3092.6,2719.1,3087,2672.9z"/>
			<linearGradient id="SVGID_33_" gradientUnits="userSpaceOnUse" x1="2688.342" y1="2326.7422" x2="3082.2969" y2="2326.7422">
				<stop  offset="0" style="stop-color:#4F52FF"/>
				<stop  offset="1" style="stop-color:#4042E2"/>
			</linearGradient>
			<path class="st37" d="M2829.1,2510.4c0,0-79.3-75.5-118.4-125.6c-21.1-27-27.7-62.6-18-95.5c17.8-60.1,49.5-122.3,52.4-131.9
				c4.4-14.8,93.4-14.2,93.4-14.2s175,113.6,243.8,306l-77.2,24c0,0-45.7-76.7-90.8-125.4c0,0,78.1,103.2,80.9,145.5L2829.1,2510.4z
				"/>
			
				<linearGradient id="SVGID_34_" gradientUnits="userSpaceOnUse" x1="2382.4673" y1="2262.2773" x2="2353.6689" y2="2077.49" gradientTransform="matrix(1 0 0 1 425.7308 0)">
				<stop  offset="0" style="stop-color:#FEBBBA"/>
				<stop  offset="1" style="stop-color:#FF928E"/>
			</linearGradient>
			<path class="st38" d="M2734.4,2074.4c0.9,3.1,24.1,80,26,81.6c1.8,1.6,50.9,4.2,74-11.6l-47.2-104.3L2734.4,2074.4z"/>
			
				<linearGradient id="SVGID_35_" gradientUnits="userSpaceOnUse" x1="3032.8418" y1="810.5021" x2="3218.9333" y2="936.9039" gradientTransform="matrix(0.723 -0.6909 0.6909 0.723 -95.1001 3572.7656)">
				<stop  offset="0" style="stop-color:#FEBBBA"/>
				<stop  offset="1" style="stop-color:#FF928E"/>
			</linearGradient>
			<path class="st39" d="M2670.5,1988c0,0-16.5,38.2,2.9,96.2c19.4,58,51.2,63.1,71.2,48.7c20.1-14.3,46.2-40,49.4-92.6
				C2797.3,1987.8,2693.3,1939.7,2670.5,1988z"/>
			<linearGradient id="SVGID_36_" gradientUnits="userSpaceOnUse" x1="3056.8481" y1="1463.4857" x2="2932.3394" y2="1668.7572">
				<stop  offset="0" style="stop-color:#09005D"/>
				<stop  offset="1" style="stop-color:#1A0F91"/>
			</linearGradient>
			<path class="st40" d="M2759.4,1923.5c-18.9-10.4-38.7-13.3-57-10.6c-13.9,2-26.9,7.1-38.2,14.6c-11.5,7.5-20.7,17.4-27.5,28.8
				c-2.2,4.6-3.8,9.5-4.8,14.6c-3.8,19.2,1.3,39.1,13.9,54.2c9.4,11.2,18.9,20.6,18.9,20.6l1.6-11.8c0-14.8,11.6-30.8,26.1-35.4
				c14.4-4.6,29.7-1,40.7,9.4c14.2,13.5,22,31.5,22,31.5l4.7-1.4c0,0-0.4-23,14.2-17.6c14.5,5.4,20.5,35.8,20.5,35.8
				s30.9,14.2,33.8-27.2C2831.2,1987.6,2813,1952.9,2759.4,1923.5z"/>
			
				<linearGradient id="SVGID_37_" gradientUnits="userSpaceOnUse" x1="3043.9939" y1="794.0823" x2="3230.0874" y2="920.4853" gradientTransform="matrix(0.723 -0.6909 0.6909 0.723 -95.1001 3572.7656)">
				<stop  offset="0" style="stop-color:#FEBBBA"/>
				<stop  offset="1" style="stop-color:#FF928E"/>
			</linearGradient>
			<path class="st41" d="M2766.9,2037.9c0,0-18.3-40.3,7.3-41.7c25.6-1.5,15.2,38.8,10.1,53.5L2766.9,2037.9z"/>
			<path class="st1" d="M2653,2021.6c-0.2,0-0.5-0.1-0.7-0.3c-0.3-0.4-34.3-42.5,0.1-74.1c0.4-0.3,0.9-0.3,1.2,0.1
				c0.3,0.4,0.3,0.9-0.1,1.2c-33.2,30.5-0.3,71.3,0.1,71.7c0.3,0.4,0.3,0.9-0.1,1.2C2653.4,2021.6,2653.2,2021.6,2653,2021.6z"/>
			<g>
				<g>
					<linearGradient id="SVGID_38_" gradientUnits="userSpaceOnUse" x1="2603.5796" y1="2549.2119" x2="2747.2808" y2="1843.4783">
						<stop  offset="0" style="stop-color:#09005D"/>
						<stop  offset="1" style="stop-color:#1A0F91"/>
					</linearGradient>
					<ellipse class="st42" cx="2630.9" cy="2414.8" rx="149.6" ry="156.8"/>
					<linearGradient id="SVGID_39_" gradientUnits="userSpaceOnUse" x1="2598.0298" y1="2548.082" x2="2741.7305" y2="1842.3499">
						<stop  offset="0" style="stop-color:#09005D"/>
						<stop  offset="1" style="stop-color:#1A0F91"/>
					</linearGradient>
					<ellipse class="st43" cx="2624.9" cy="2415.9" rx="141.1" ry="147.8"/>
					<g>
						<g>
							
								<linearGradient id="SVGID_40_" gradientUnits="userSpaceOnUse" x1="2646.2493" y1="2557.9004" x2="2789.9502" y2="1852.1667">
								<stop  offset="0" style="stop-color:#FF928E"/>
								<stop  offset="1" style="stop-color:#FE7062"/>
							</linearGradient>
							<path class="st44" d="M2601.8,2502.4c-1.8,0-3.6-1.1-4.4-2.8c-1.1-2.4,0-5.2,2.4-6.3c49.7-22.2,98.8-62.9,134.6-111.6
								c1.6-2.1,4.6-2.6,6.7-1c2.1,1.6,2.6,4.6,1,6.7c-36.8,50-87.3,91.8-138.4,114.7C2603.1,2502.3,2602.4,2502.4,2601.8,2502.4z"
								/>
							
								<linearGradient id="SVGID_41_" gradientUnits="userSpaceOnUse" x1="2627.9771" y1="2554.1799" x2="2771.6782" y2="1848.4464">
								<stop  offset="0" style="stop-color:#FF928E"/>
								<stop  offset="1" style="stop-color:#FE7062"/>
							</linearGradient>
							<path class="st45" d="M2595.4,2480.9c-1.7,0-3.4-0.9-4.2-2.5c-1.2-2.3-0.4-5.2,2-6.5c43.7-23.3,85.1-59.6,116.5-102.3
								c1.6-2.1,4.6-2.6,6.7-1c2.1,1.6,2.6,4.6,1,6.7c-32.7,44.4-74.1,80.7-119.7,105C2596.9,2480.7,2596.1,2480.9,2595.4,2480.9z"
								/>
							
								<linearGradient id="SVGID_42_" gradientUnits="userSpaceOnUse" x1="2611.4175" y1="2550.8081" x2="2755.1184" y2="1845.0748">
								<stop  offset="0" style="stop-color:#FF928E"/>
								<stop  offset="1" style="stop-color:#FE7062"/>
							</linearGradient>
							<path class="st46" d="M2589.4,2462.6c-1.6,0-3.2-0.8-4.1-2.3c-1.4-2.3-0.7-5.2,1.6-6.6c37.9-23.3,72.4-55.3,99.8-92.5
								c1.6-2.1,4.6-2.6,6.7-1c2.1,1.6,2.6,4.6,1,6.7c-28.1,38.1-63.5,71-102.4,94.9C2591.1,2462.3,2590.2,2462.6,2589.4,2462.6z"/>
							<linearGradient id="SVGID_43_" gradientUnits="userSpaceOnUse" x1="2594.6055" y1="2547.385" x2="2738.3066" y2="1841.6515">
								<stop  offset="0" style="stop-color:#FF928E"/>
								<stop  offset="1" style="stop-color:#FE7062"/>
							</linearGradient>
							<path class="st47" d="M2583,2440.8c-1.5,0-3-0.7-3.9-2c-1.5-2.2-1-5.1,1.1-6.7c37.3-26.5,63.1-50.7,83.6-78.5
								c1.6-2.1,4.6-2.6,6.7-1c2.1,1.6,2.6,4.6,1,6.7c-21.1,28.7-47.6,53.6-85.8,80.7C2585,2440.5,2584,2440.8,2583,2440.8z"/>
							
								<linearGradient id="SVGID_44_" gradientUnits="userSpaceOnUse" x1="2573.8176" y1="2543.1516" x2="2717.5188" y2="1837.4183">
								<stop  offset="0" style="stop-color:#FF928E"/>
								<stop  offset="1" style="stop-color:#FE7062"/>
							</linearGradient>
							<path class="st48" d="M2577.8,2412.9c-1.3,0-2.7-0.6-3.6-1.7c-1.7-2-1.5-5,0.5-6.8c2.8-2.4,5.7-4.9,8.5-7.2
								c18-15.3,35-29.7,49.6-49.4c1.6-2.1,4.6-2.6,6.7-1c2.1,1.6,2.6,4.6,1,6.7c-15.2,20.7-32.6,35.4-51.1,51.1
								c-2.8,2.4-5.6,4.8-8.5,7.2C2580,2412.5,2578.9,2412.9,2577.8,2412.9z"/>
							
								<linearGradient id="SVGID_45_" gradientUnits="userSpaceOnUse" x1="2667.8877" y1="2562.3064" x2="2811.5889" y2="1856.5734">
								<stop  offset="0" style="stop-color:#FF928E"/>
								<stop  offset="1" style="stop-color:#FE7062"/>
							</linearGradient>
							<path class="st49" d="M2614.4,2526.3c-1.9,0-3.7-1.1-4.4-3c-1-2.5,0.2-5.2,2.6-6.2c53.5-21.8,108.2-66.4,146.3-119.5
								c1.5-2.1,4.5-2.6,6.7-1.1c2.1,1.5,2.6,4.5,1.1,6.7c-39.1,54.4-95.4,100.3-150.4,122.8
								C2615.6,2526.2,2615,2526.3,2614.4,2526.3z"/>
							<linearGradient id="SVGID_46_" gradientUnits="userSpaceOnUse" x1="2686.7307" y1="2566.1433" x2="2830.4319" y2="1860.41">
								<stop  offset="0" style="stop-color:#FF928E"/>
								<stop  offset="1" style="stop-color:#FE7062"/>
							</linearGradient>
							<path class="st50" d="M2629.4,2553.3c-1.8,0-3.5-1-4.3-2.8c-1.1-2.4-0.1-5.2,2.3-6.4c54.5-25.6,110.8-75.6,146.9-130.7
								c1.5-2.2,4.4-2.8,6.6-1.4c2.2,1.5,2.8,4.4,1.4,6.6c-37,56.5-94.8,107.9-150.8,134.1
								C2630.8,2553.1,2630.1,2553.3,2629.4,2553.3z"/>
							
								<linearGradient id="SVGID_47_" gradientUnits="userSpaceOnUse" x1="2694.3799" y1="2567.7009" x2="2838.0811" y2="1861.9674">
								<stop  offset="0" style="stop-color:#FF928E"/>
								<stop  offset="1" style="stop-color:#FE7062"/>
							</linearGradient>
							<path class="st51" d="M2638.3,2567.8c-1.8,0-3.5-1-4.3-2.7c-1.1-2.4-0.1-5.2,2.3-6.4c34.7-16.3,98.2-51.8,134-105.8
								c1.5-2.2,4.4-2.8,6.6-1.3c2.2,1.5,2.8,4.4,1.3,6.6c-37.1,55.9-102.3,92.3-137.9,109.1
								C2639.7,2567.6,2639,2567.8,2638.3,2567.8z"/>
						</g>
						<g>
							
								<linearGradient id="SVGID_48_" gradientUnits="userSpaceOnUse" x1="2603.7012" y1="2549.2366" x2="2747.4021" y2="1843.5042">
								<stop  offset="0" style="stop-color:#FF928E"/>
								<stop  offset="1" style="stop-color:#FE7062"/>
							</linearGradient>
							<path class="st52" d="M2780.2,2421.5c-1.3,0-2.6-0.5-3.6-1.6c-54.3-60.5-180.9-85.9-282.3-56.5c-2.5,0.7-5.2-0.7-5.9-3.3
								c-0.7-2.5,0.7-5.2,3.3-5.9c104.6-30.3,235.6-3.6,292.1,59.3c1.8,2,1.6,5-0.4,6.8C2782.5,2421.1,2781.3,2421.5,2780.2,2421.5z
								"/>
							<linearGradient id="SVGID_49_" gradientUnits="userSpaceOnUse" x1="2604.3296" y1="2549.365" x2="2748.0313" y2="1843.629">
								<stop  offset="0" style="stop-color:#FF928E"/>
								<stop  offset="1" style="stop-color:#FE7062"/>
							</linearGradient>
							<path class="st53" d="M2776.7,2388.2c-1.3,0-2.5-0.5-3.5-1.5c-52.2-55.2-164.3-79.9-260.7-57.6c-2.6,0.6-5.2-1-5.7-3.6
								c-0.6-2.6,1-5.2,3.6-5.7c99.4-23,215.4,2.9,269.8,60.4c1.8,1.9,1.7,5-0.2,6.8C2779.1,2387.7,2777.9,2388.2,2776.7,2388.2z"/>
							<linearGradient id="SVGID_50_" gradientUnits="userSpaceOnUse" x1="2596.8577" y1="2547.843" x2="2740.5588" y2="1842.1102">
								<stop  offset="0" style="stop-color:#FF928E"/>
								<stop  offset="1" style="stop-color:#FE7062"/>
							</linearGradient>
							<path class="st54" d="M2755,2335.1c-0.8,0-1.7-0.2-2.4-0.7c-61.4-36-142.8-47.8-217.8-31.6c-2.6,0.6-5.1-1.1-5.7-3.7
								c-0.6-2.6,1.1-5.1,3.7-5.7c77.3-16.7,161.2-4.4,224.6,32.7c2.3,1.3,3,4.3,1.7,6.6C2758.3,2334.3,2756.7,2335.1,2755,2335.1z"
								/>
							
								<linearGradient id="SVGID_51_" gradientUnits="userSpaceOnUse" x1="2595.8828" y1="2547.6448" x2="2739.5837" y2="1841.9116">
								<stop  offset="0" style="stop-color:#FF928E"/>
								<stop  offset="1" style="stop-color:#FE7062"/>
							</linearGradient>
							<path class="st55" d="M2728.3,2301.5c-0.6,0-1.2-0.1-1.9-0.4c-49.3-20.7-101.7-28.5-155.6-23.1c-2.6,0.2-5-1.7-5.2-4.3
								c-0.3-2.6,1.7-5,4.3-5.2c55.5-5.6,109.4,2.4,160.2,23.8c2.4,1,3.6,3.8,2.6,6.3C2731.9,2300.4,2730.2,2301.5,2728.3,2301.5z"
								/>
						</g>
						<g>
							<linearGradient id="SVGID_52_" gradientUnits="userSpaceOnUse" x1="2589.2659" y1="2546.2976" x2="2732.967" y2="1840.5641">
								<stop  offset="0" style="stop-color:#FF928E"/>
								<stop  offset="1" style="stop-color:#FE7062"/>
							</linearGradient>
							<path class="st56" d="M2641.6,2572.8c-1.5,0-2.9-0.7-3.9-2c-45.3-61.7-71.3-145.4-69.5-223.9c0.1-2.6,2.2-4.8,4.9-4.7
								c2.6,0.1,4.7,2.3,4.7,4.9c-1.7,76.4,23.6,157.9,67.7,218c1.6,2.1,1.1,5.1-1,6.7C2643.6,2572.5,2642.6,2572.8,2641.6,2572.8z"
								/>
							
								<linearGradient id="SVGID_53_" gradientUnits="userSpaceOnUse" x1="2560.3477" y1="2540.4092" x2="2704.0486" y2="1834.6769">
								<stop  offset="0" style="stop-color:#FF928E"/>
								<stop  offset="1" style="stop-color:#FE7062"/>
							</linearGradient>
							<path class="st57" d="M2607.2,2571.8c-1.6,0-3.1-0.8-4-2.2c-42.3-64.4-65.1-147.2-60.7-221.6c0.2-2.6,2.4-4.7,5.1-4.5
								c2.6,0.1,4.7,2.4,4.5,5.1c-4.2,72.4,17.9,153,59.2,215.7c1.5,2.2,0.8,5.2-1.4,6.6C2609,2571.6,2608.1,2571.8,2607.2,2571.8z"
								/>
							<linearGradient id="SVGID_54_" gradientUnits="userSpaceOnUse" x1="2530.8652" y1="2534.406" x2="2674.5664" y2="1828.6725">
								<stop  offset="0" style="stop-color:#FF928E"/>
								<stop  offset="1" style="stop-color:#FE7062"/>
							</linearGradient>
							<path class="st58" d="M2576.5,2563c-1.6,0-3.1-0.8-4-2.2c-37.4-58.6-60.3-138.3-59.8-208c0-2.6,2.2-4.7,4.8-4.8
								c2.6,0,4.8,2.2,4.8,4.8c-0.4,68,21.9,145.6,58.3,202.8c1.4,2.2,0.8,5.2-1.5,6.6C2578.3,2562.7,2577.4,2563,2576.5,2563z"/>
							
								<linearGradient id="SVGID_55_" gradientUnits="userSpaceOnUse" x1="2507.8286" y1="2529.7153" x2="2651.5298" y2="1823.9818">
								<stop  offset="0" style="stop-color:#FF928E"/>
								<stop  offset="1" style="stop-color:#FE7062"/>
							</linearGradient>
							<path class="st59" d="M2546.7,2548.4c-1.6,0-3.1-0.8-4-2.2c-33.8-52.4-46.2-131.7-46.4-188.5c0-2.6,2.1-4.8,4.8-4.8h0
								c2.6,0,4.8,2.1,4.8,4.8c0.2,55.4,12.1,132.7,44.9,183.3c1.4,2.2,0.8,5.2-1.4,6.6C2548.5,2548.2,2547.6,2548.4,2546.7,2548.4z
								"/>
						</g>
					</g>
				</g>
			</g>
			
				<linearGradient id="SVGID_56_" gradientUnits="userSpaceOnUse" x1="2515.3928" y1="2497.8755" x2="2937.6162" y2="2497.8755" gradientTransform="matrix(1 0 0 1 425.7308 0)">
				<stop  offset="0" style="stop-color:#FEBBBA"/>
				<stop  offset="1" style="stop-color:#FF928E"/>
			</linearGradient>
			<path class="st60" d="M2678,2540.2l59.6-64.8l68.8,18.5c0,0,80.2,12.4,126.2,0c45.9-12.4,45.9-12.4,45.9-12.4l103.8-32.3
				l16.3,46.1c4.1,11.7,0,24.7-10.1,31.9c-9,6.4-19.5,13.4-26.2,16.3c-13.7,6-314.9,1.9-314.9,1.9L2678,2540.2z"/>
			
				<linearGradient id="SVGID_57_" gradientUnits="userSpaceOnUse" x1="2126.356" y1="1465.2222" x2="2165.8755" y2="1465.2222" gradientTransform="matrix(0.7416 0.6709 -0.6709 0.7416 1893.5171 -188.1499)">
				<stop  offset="0" style="stop-color:#FEBBBA"/>
				<stop  offset="1" style="stop-color:#FF928E"/>
			</linearGradient>
			<path class="st61" d="M2500.5,2310.8c0,0,36-7.3,30.6-0.2c-5.4,7.2-18.9,20.9-18.9,20.9s0.7,5.5-3.8,19.6s-16.1,31.8-22.3,28.8
				S2484.2,2325.1,2500.5,2310.8z"/>
		</g>
		<g>
			
				<linearGradient id="SVGID_58_" gradientUnits="userSpaceOnUse" x1="-223.4602" y1="1367.8358" x2="-718.1056" y2="4138.8481" gradientTransform="matrix(-1 0 0 1 1596.9999 0)">
				<stop  offset="0" style="stop-color:#FF928E"/>
				<stop  offset="1" style="stop-color:#FE7062"/>
			</linearGradient>
			<path class="st62" d="M1434.2,2505l76.8-356.1c13.4-78.9-13.1-160.8-71-219.9h0c-31.8-32.4-51.7-74-56.2-117.9
				c-6.9-68.6-6.1-180.2,39.8-316.7c61.6-183.3,252.8-300.6,458-277.7c104.5,11.7,228.4,39.9,361.2,99.4
				c77.5,34.7,131.2,103.7,139.8,183.4c4,37.1,11.4,78.3,24.8,114.9c16.9,46.2,24.3,77.9,27.3,98.5c2.8,18.7-5.3,37.2-21,49.1l0,0
				c-16.2,12.3-20.2,33.4-9.6,50.4l118.8,189.9v6.1c0,18.7-16.1,33.7-36.8,34.2l-71.6,1.6l2.7,66.2c0.5,12.8-8.7,23.8-22.3,26.6
				l-16.2,3.3l14.8,11.4c12.1,9.3,15.2,24.9,7.4,36.7l-20.9,31.5c-9.4,14.2-8.1,32.7,3.4,46.8l0,0c19.1,23.3,23,53.6,10.1,78.6
				l-5.8,11.3c-26.9,52.2-90.5,78.2-153.4,62.9c-70.6-17.2-160-42.7-220.7-73.3c-17.2-8.7-36.9,2-36.9,19.7v180.5L1434.2,2505z"/>
			<linearGradient id="SVGID_59_" gradientUnits="userSpaceOnUse" x1="1910.7318" y1="901.2266" x2="1964.5745" y2="-458.2733">
				<stop  offset="0" style="stop-color:#FEBBBA"/>
				<stop  offset="1" style="stop-color:#FF928E"/>
			</linearGradient>
			<path class="st63" d="M2111.1,1701c56-12,72.9,10.3,118.3-6.6c54.7-20.3,95.6-75,102.5-129.8c9.7-77.8-51.6-135.6-93.6-175.3
				c-96.4-90.9-213.6-111.8-247.8-117.5c-46.4-7.7-244.6-34.1-401.7,96.6c-109,90.7-135.7,205.2-143.1,239.4
				c-10.8,49.7-44.4,204.9,43.4,265.7c52,36.1,135.6,31.7,188.7,1.2c39.1-22.5,31-38.7,69.6-60.9c77-44.4,130.8,11.6,221.8-23
				C2041.9,1763.2,2035.2,1717.3,2111.1,1701z"/>
			<linearGradient id="SVGID_60_" gradientUnits="userSpaceOnUse" x1="1509.8778" y1="2030.7457" x2="2683.0117" y2="2030.7457">
				<stop  offset="0" style="stop-color:#E1473D"/>
				<stop  offset="1" style="stop-color:#E9605A"/>
			</linearGradient>
			<path class="st64" d="M2126.1,2713.4c-103.1,0-195.4-23.1-275.1-68.9c-96.8-55.7-154.5-133.8-185.8-189.4
				c-35.2-62.6-57.2-133.1-58.8-188.4c-1.9-65.3-27-114.7-49.1-158.3c-27.5-54.2-51.2-101-26.2-162.2c1.4-3.3,3.5-8.3,6.3-14.5
				c16-36.6,53.4-122.3,47.6-154.1c-3-16.4-12.1-25.1-13.3-26.2c-3.9-2.7-8.7-4.2-13.7-5.8c-2.9-0.9-6-1.9-8.9-3.1
				c-29.8-12.4-42.1-46.9-38.7-74.7c3.1-25.4,17-50.6,41.4-74.8c7.3-7.2,15.5-14.3,26-16.7c3.6-0.8,7.3-1,11-0.7
				c1.2-0.8,2.5-1.5,3.7-2.3c-3.1-5.2-5.7-10.6-7.7-16.5c-10.2-30.1-2.4-65,23.9-106.8c12.1-19.2,55.8-80.7,112.2-67.3
				c4.8,1.2,9.4,2.8,13.7,4.9c5.7-3.9,11.9-7.6,18.6-11.1c84.7-44.6,193-36.2,269.6,20.8c3.7,2.8,7.1,7.4,8.8,12.3
				c16-7.4,38-6.3,66.6,3.1c33.4,11,79.6,30.5,94,71.7c5.8,16.4,6.1,35.7,1,57.1c-6.9,29.1-21.8,51.3-41.9,62.6
				c-18.2,10.2-45.1,10.1-62.3-3.7c-2.3,35.3-27.2,68.9-62.5,81.7c-26.5,9.6-57.6,7.2-84.5-5.6c-13.9,40.7-46.2,72.7-84,82.8
				c-6.8,1.8-12.8,2.4-18.5,1.9c-21.6-1.9-36.2-17.8-43.4-47.1c-0.7-2.9-2.9-5.1-5.8-5.7c-2.9-0.7-5.8,0.2-7.8,2.5
				c-2.5,3-6.4,4.3-10.2,3.7c-3.8-0.7-6.9-3.2-8.3-6.8c-4.6-12-7.7-24.4-9.5-37c-10.7-0.3-21.5-2.8-31.7-7.4c-1,0.8-2,1.6-3,2.4
				c-1.9,16.7-6.7,34.6-14.6,54c-11.1,27.4-27.5,41-46.1,38.4c-5.9-0.8-11.3-3.3-15.8-7c-16.5,1.5-33.5-0.2-49.2-5
				c-10.4-3.2-15.1-8.9-14-17c0.3-2.5,1.2-4.9,2.7-7.2c3.8-6.1,8.4-11.4,13.3-16.2c-9.5,1.6-18.9,0.5-27.3-3.3
				c-27.2-12.4-35.2-47.1-27.1-72.2c4-12.2,11.3-23.8,21.6-34.4c-1.5,1.3-2.9,2.7-4.4,4.2c-22.7,22.6-35.7,45.8-38.5,68.9
				c-3.3,27.5,10.7,55,32.5,64.1c2.6,1.1,5.3,1.9,8.1,2.8c5.6,1.8,11.5,3.6,16.7,7.3l0.3,0.2c0.5,0.4,13.1,11,16.9,32.3
				c6.3,34.8-30.6,119.3-48.3,159.9c-2.7,6.1-4.8,11-6.2,14.3c-23.3,56.8-0.5,101.8,25.8,153.8c22.6,44.5,48.1,95,50.1,162.6
				c1.6,53.8,23.1,122.5,57.6,183.8c30.7,54.6,87.1,131.1,182,185.6c140.6,80.9,397,129.2,819.5-100c2.4-1.3,5.5-0.4,6.8,2
				c1.3,2.4,0.4,5.5-2,6.8c-183.3,99.5-351.4,155.5-499.5,166.7C2162.3,2712.7,2144,2713.4,2126.1,2713.4z M1788.5,1698.2
				c1.4,0,2.8,0.2,4.2,0.5c6.6,1.6,11.6,6.6,13.3,13.2c6.2,25,17.5,37.9,34.5,39.4c4.5,0.4,9.3-0.1,15-1.6
				c35.1-9.4,65-39.6,77.6-77.8c-7-4.1-13.7-8.9-19.7-14.5c-1.2-1.1-2.5-2.3-3.7-3.5c-14.3-1.7-29.6-5.6-46.2-11.7
				c-10.5-3.8-20.2-8.2-28.9-12.9c-2.1-0.3-4.2-0.7-6.2-1.1c1.8,11,2,22.2,0.5,33.2l-0.9,6.4l-6-2.4c-7.6-3.1-15.5-5.5-23.5-7.4
				c-7.8,5.2-16.5,9.2-26.2,11.4c-2.5,0.5-5,1-7.5,1.2c1.7,11.5,4.7,22.9,8.8,33.8c0,0.1,0.2,0.4,0.6,0.5c0.2,0,0.6,0,0.8-0.3
				C1778.4,1700.5,1783.4,1698.2,1788.5,1698.2z M1661.4,1748.5c6.8,0.7,12.6-1.8,17.6-6c-3.7,1.8-7.9,3.4-12.4,4.7
				C1664.8,1747.6,1663.1,1748.1,1661.4,1748.5z M1613.6,1704.1c-8.7,6.7-16.5,14.1-22.3,23.4c-0.7,1-1.1,2.1-1.2,3.1
				c-0.2,1.6-0.5,3.8,6.9,6.1c12.3,3.7,25.3,5.4,38.1,5.1c-2.6-4.4-4.2-9.5-4.6-14.9c-0.4-4.4-0.1-8.8,0.7-13.1
				c-2.7,1-5.4,2.1-8.2,3.1l-4.9,1.8l-1.6-5C1615.4,1710.5,1614.5,1707.3,1613.6,1704.1z M1642.8,1709.1c-2,5.4-2.7,11-2.3,16.9
				c0.5,5.7,2.8,10.9,6.3,14.9c5.8-0.7,11.4-1.9,17-3.4c7.2-2,24.3-8.2,26.8-21.5c1.1-5.7-0.7-12-2.9-18c-1-2.9-2.1-5.8-3.3-8.6
				C1671.8,1696.3,1658,1702.9,1642.8,1709.1z M1622.3,1697.8c0.7,2.6,1.4,5.1,2.1,7.7c3.7-1.4,7.3-2.8,10.8-4.2
				c6.1-12.8,17.8-24.4,34.8-34.3c0.8-0.5,1.7-1,2.6-1.5c-0.6-1-1.2-2-1.8-2.9c-0.1,0.1-0.2,0.2-0.2,0.2c-10.5,10.3-23,18.4-35,26.2
				C1631.1,1692,1626.6,1694.9,1622.3,1697.8z M1693.2,1684.2c1.4,3.4,2.8,6.9,4,10.3c1.2,3.3,2.3,6.7,3,10.1
				c3.7-10.6,6.4-20.6,8.1-30.3C1703.6,1677.7,1698.5,1681,1693.2,1684.2z M1591.1,1586.2c-15.8,10.5-33,26.2-39.8,47.3
				c-6.8,21.1,0.3,50.2,21.7,60c9.1,4.2,20,4.1,30.6-0.1c2.3-0.9,4.5-2,6.6-3.2c-6.8-31.5-7.9-64.5-3-96.3
				C1601.9,1589.9,1596.4,1587.3,1591.1,1586.2z M1677.5,1674.4c-0.8,0.4-1.6,0.9-2.4,1.4c-9.9,5.8-17.7,11.9-23.4,18.5
				c10.2-4.6,19.7-9.3,28.5-14.3C1679.4,1678.1,1678.5,1676.3,1677.5,1674.4z M1616.1,1602.2c-3.4,27-2.4,54.6,2.9,81.3
				c4.9-4.6,8.8-10,11.2-16C1638.5,1647,1632.9,1621,1616.1,1602.2z M1945,1666.8c24.8,12.2,53.6,14.7,78.1,5.8
				c35.1-12.7,59.5-50.1,55.5-85.2l-1.3-11.2c-10.8-0.4-21.5-4.6-29.8-10.4c-5.3-3.7-9.9-8-14.2-12.6c-7.4,39.9-30.4,80.8-71.3,95.6
				c-4.5,1.6-9.2,2.9-14.1,3.9C1947.2,1657.6,1946.2,1662.2,1945,1666.8z M1640.5,1625.1c4.9,15.5,4.8,32-1,46.2
				c-0.6,1.5-1.3,3-2.1,4.5c9.2-6.1,18.3-12.5,26-20.1c0.6-0.6,1.1-1.1,1.7-1.7c-5.3-7.7-11.3-15-17.7-21.8
				C1645.3,1629.8,1642.9,1627.4,1640.5,1625.1z M1686.5,1669.8c0.9,1.7,1.7,3.4,2.6,5.1c7.5-4.5,14.4-9.3,21-14.2
				C1701.9,1663.1,1694.1,1666.2,1686.5,1669.8z M1926,1654.9c3.2,2.5,6.5,4.8,9.9,6.9c0.6-2.5,1.1-4.9,1.6-7.4
				C1933.7,1654.7,1930,1655,1926,1654.9z M1677.9,1654.9c1.3,2,2.5,4,3.7,6c7.2-3.4,14.6-6.4,22.1-8.8c-3-2.3-6-4.9-8.8-7.6
				c-2-2-4-4-5.8-6.2C1685.9,1644.2,1682.2,1649.7,1677.9,1654.9z M1731.4,1656.1c7.2,2.7,14.6,4.3,22,4.6c-0.2-2.4-0.3-4.8-0.4-7.2
				c-7.1,0.3-14.1,1-21.1,2.1C1731.7,1655.8,1731.5,1656,1731.4,1656.1z M1763,1653.5c0.1,2.3,0.3,4.6,0.5,7
				c2.2-0.2,4.4-0.6,6.5-1.1c4.6-1,8.9-2.5,13-4.4C1776.4,1654.1,1769.7,1653.6,1763,1653.5z M1808.4,1650.1c3.7,1.1,7.4,2.2,11,3.5
				c0.4-5,0.4-10,0-15C1816,1642.6,1812.4,1646.5,1808.4,1650.1z M1702.6,1590.3c6.5,8.9,11.5,19.2,14.4,30.2
				c2.3,8.6,3.5,17.6,3.7,27c2.2-0.5,4.3-0.9,6.5-1.3c5.2-4.8,10-9.8,14.4-15.1c5.5-6.4,10.4-13.2,14.7-20.1
				c1.9-9.2,4.6-18.3,8-27.1c-10.5-15.1-18.5-33.2-23.5-53.5c-9.8,0.3-19.9-2.4-28.8-8c-15.3-9.7-23.6-24.1-26.6-39.8
				c-1.3,1.4-2.6,2.8-3.7,4.3c-7.5,9.9-11.8,21.2-14.1,32.3c16.5,4.7,26.8,21.9,31.1,37.3
				C1701.9,1567.7,1703.1,1579.1,1702.6,1590.3z M1762.9,1643.4c11.2,0.2,22.4,1.4,33.3,3.7c8.1-6.1,15-13.8,20.8-22
				c-9.1-3.1-17.8-7.5-25.8-13.4c-5.8-4.2-11.1-9-16.1-14.4c-2.7,5.9-5.7,11.8-9.2,17.5C1764,1624.2,1763,1633.8,1762.9,1643.4z
				 M1618.1,1589.5c5.5,5.8,11.6,11.4,17.7,17.1c6.4,6,13,12.2,19.1,18.6c6.1,6.5,11.9,13.5,17.1,20.9c3.9-5.2,7.4-10.7,10.2-16.6
				c-11.2-15.8-19.2-35.4-23.6-57.7c-0.2-0.9-0.3-1.8-0.5-2.8c-4.8-1.4-9.9-2.2-15.2-2.2c0,0,0,0-0.1,0c-6.6,0-13.3,1.2-20.6,3.5
				c0,0.1,0,0.1,0,0.2C1620.6,1576.8,1619.2,1583.1,1618.1,1589.5z M1914.3,1644.2c8.7,0.8,16.9,0.8,24.7-0.2
				c3-26.9-1.1-55.9-12.1-84.2c-3.6,18.6-11.7,38.6-28.9,53.1c-1.2,1-2.5,2-3.7,2.9C1899.7,1626.3,1906.4,1635.9,1914.3,1644.2z
				 M1693.9,1628.4c2.5,3.2,5.2,6.2,8.1,9c2.7,2.6,5.5,5.1,8.5,7.3c-0.4-7.5-1.5-14.6-3.3-21.5c-1.5-5.6-3.7-11.2-6.6-16.7
				C1699.2,1613.9,1696.9,1621.3,1693.9,1628.4z M1753.3,1633c-1.3,1.6-2.6,3.2-4,4.8c-1.8,2.1-3.7,4.2-5.6,6.3
				c3-0.3,6.1-0.5,9.2-0.6C1752.8,1640,1753,1636.5,1753.3,1633z M1929.3,1540.7c1.4,2.3,2.5,4.6,3.5,6.8
				c13.8,31.5,19.4,64.2,16.6,94.7c3.2-0.8,6.3-1.7,9.3-2.8c40-14.4,61.1-56.7,66.2-96.1c-2.2-2.7-4.3-5.5-6.4-8.3
				c-2-2.5-3.9-5.1-5.9-7.6c-25.5-32-55.5-54.4-86.9-64.9c-3.7-1.2-7.4-2.3-11.2-3.2c-1.9,1.3-3.7,2.7-5.4,4.1
				c12.6,14.5,19.5,35.2,20.5,61.9C1929.6,1529.9,1929.6,1535.1,1929.3,1540.7z M1858.6,1629.5c2.8,1.2,5.6,2.2,8.3,3.2
				c11.3,4.2,22,7.2,32.1,9.2c-5.1-6.5-9.5-13.4-13.4-20.8C1877.4,1625.5,1868.2,1628.3,1858.6,1629.5z M1837.9,1619.6
				c15.4,1.8,30.7-0.7,43.4-7.5c-4.4-10.1-7.7-20.9-9.8-32c-6.1-4-11.9-8.8-17-14c-1.9,6-3.8,12.1-5.8,18.1
				c-3.3,9.5-8.1,21.3-14.8,33.2C1835.2,1618.1,1836.6,1618.8,1837.9,1619.6z M1669.2,1573.7c3.7,16.9,9.7,31.9,17.6,44.6
				c2.8-8.1,4.6-16.5,5.3-25C1685.9,1585.3,1678.1,1578.4,1669.2,1573.7z M1824,1610.9c0.5,0.3,0.9,0.6,1.4,1
				c6.2-11.1,10.7-22.2,13.7-31c2.7-7.7,5.1-15.8,7.5-23.7c-10.7-13.5-18.2-29.5-21.2-46.4c-2.4-13.6-1.4-28.6,4.2-41
				c-2.6,1.5-5.2,3.1-7.7,4.9c-17.1,12.1-29,30.2-34.1,49.4c1.2,11.6,0.8,23.6-1.2,35.6c0.4,1.7,0.8,3.5,1.3,5.2
				c7.8,0.5,12.9,6.5,15.5,9.4C1812.6,1584.9,1819.5,1597.5,1824,1610.9z M1779.3,1586.9c5.4,6.4,11.4,12,17.8,16.7
				c2.7,2,5.4,3.7,8.3,5.3c-10.2-9.3-18-19.6-23.2-30.8C1781.4,1581.1,1780.4,1584,1779.3,1586.9z M1883.2,1586.2
				c1.7,7,4,13.8,6.7,20.3c0.5-0.4,1.1-0.9,1.6-1.3c19.6-16.5,25.9-41.8,27.5-61.9c-6.1-9.2-14.6-16.4-22-18.1
				c-4.3-1-8-0.2-11.3,2.6c-3.7,3.1-6,8-6.4,13.5c-0.7,11.1-0.2,22,1.4,32.6c1.7,1,3.4,1.9,5.1,2.8c2.5,1.3,3.5,4.3,2.2,6.8
				C1887.1,1585.3,1885.2,1586.3,1883.2,1586.2z M2083,1576.2l5,8.1c11.7,19.2,40.2,21.2,58.4,11.1c23.8-13.3,33.4-40.9,37.1-56.1
				c4.6-19.5,4.4-36.8-0.7-51.4c-12.9-37-56.2-55-87.6-65.4c-9-3-17.3-5.1-24.8-6.3c25.2,6.8,45.7,22.4,55.5,42.7
				c15.9,33,2.1,69.8-7.6,88.8c-3.9,7.8-9.1,16.4-17.2,22.1C2095.5,1573.7,2089.3,1575.6,2083,1576.2z M1793.7,1578.6
				c3.4,6.2,7.6,11.8,12.3,16.9c-3-5.2-6.5-10.1-10.4-14.7C1795,1579.9,1794.4,1579.2,1793.7,1578.6z M1607.1,1576.8
				c0.8,1.1,1.7,2.1,2.5,3.2c0.3-1.7,0.7-3.3,1.1-5C1609.5,1575.6,1608.3,1576.2,1607.1,1576.8z M1667.1,1561.7
				c9.1,3.7,17.7,9.5,25.2,16.7c-0.4-6.4-1.5-12.8-3.2-19c-3.4-12.3-11.1-25.8-22.9-29.9C1665,1541.3,1665.8,1552.6,1667.1,1561.7z
				 M1750.9,1529.2c4.2,16.7,10.6,31.7,18.7,44.6c1.4-1.7,2.9-3.2,4.6-4.5c0.8-3.2,1.5-6.3,2.1-9.5c-2.2-11.8-1.6-24.3,1.3-36.3
				c-0.4-3.4-1-6.8-1.7-10.1c-2.4,3-5.1,5.7-8.2,8C1762.7,1525.2,1757,1527.8,1750.9,1529.2z M1704.9,1391
				c-43.5,0-77.6,48.4-87.7,64.5c-24.6,39.1-32.1,71.2-22.9,98.2c1.8,5.3,4.2,10.2,7,14.8c4.4-2.3,8.6-4.2,12.6-5.8
				c7.4-23.1,22.9-43.8,43.7-44.5c2.5-12.7,7.3-25.6,16.1-37.2c3-4,6.6-7.7,10.5-10.9c-0.2-13.6,3.3-27.3,9.4-39
				c7-13.3,17.5-25.6,31.5-36.6c-2.1-0.8-4.3-1.4-6.5-2C1713.9,1391.5,1709.4,1391,1704.9,1391z M2076.9,1566.1
				c6.5,0.4,13-0.8,18.4-4.6c6.3-4.4,10.6-11.8,14-18.4c8.8-17.4,21.5-50.8,7.5-79.9c-9.3-19.2-29.8-33.7-54.9-38.7
				c-10.4-2.1-20.9-2.6-31-2.1c-1.5,2.1-3.8,3.4-6.7,3.9l-16.3,2.6l5-4.7c-3.2,0.5-6.3,1-9.4,1.5c20.6,25.4,32.4,60.4,32.7,97.9
				c0,5.4-0.2,10.9-0.8,16.5c5.5,6.6,11.3,12.6,18.1,17.5c6.3,4.4,14.6,7.8,22.8,8.5l-0.1-1.2L2076.9,1566.1z M1857.9,1554.9
				c3.6,4.1,7.5,7.8,11.7,11.2c-0.8-8.4-0.9-16.9-0.3-25.6c0.6-8.2,4.2-15.6,10-20.5c5.7-4.8,12.7-6.5,20.1-4.7
				c7.4,1.7,14.3,6.5,20.1,12.4c0-0.7,0-1.3-0.1-2c-0.9-24.3-7-43-18.1-55.7c-3.5,3.3-6.8,6.8-9.7,10.4
				C1874.4,1501.5,1865.9,1528.5,1857.9,1554.9z M1656.2,1528.4c-14.2,1.6-24.3,16.5-30,30.4c5.7-1.4,11.2-2,16.6-2c0,0,0,0,0.1,0
				c4.6,0,9.1,0.5,13.6,1.6C1655.5,1549.5,1655.1,1539.1,1656.2,1528.4z M1847.6,1461.7c-12.3,10.5-15.4,29.7-12.2,47.2
				c2.3,12.9,7.5,25.3,14.9,36.2c7.7-25.1,16.5-50.3,33.4-71c3.1-3.8,6.5-7.5,10.2-11c-0.2-0.2-0.4-0.3-0.6-0.5
				c-3.9-3-8.2-5.2-12.5-6.7C1869.3,1456.3,1858,1458.3,1847.6,1461.7z M1925.8,1452.1c1,0.3,1.9,0.6,2.9,0.9
				c33.3,11.1,65,34.7,91.6,68.1c1.9,2.4,3.7,4.8,5.6,7.2c0-1.5,0.1-3.1,0-4.6c-0.2-37.3-12.5-71.8-33.9-95.7
				c-0.6,0.1-1.2,0.3-1.9,0.4C1964.6,1434.3,1943.2,1442.1,1925.8,1452.1z M1694.8,1474.8c1.4,15.6,8.5,30.3,22.7,39.2
				c6.6,4.2,14,6.3,21.2,6.5c-0.3-1.5-0.5-2.9-0.8-4.4c-2.1-12.7-3.9-31.5-0.8-51.2c-4.8-0.9-10-1.1-15.4-0.5
				C1712.2,1465.6,1702.8,1469.3,1694.8,1474.8z M1746.8,1468.1c-2.6,17.8-0.9,34.8,1,46.3c0.3,1.7,0.6,3.3,0.9,5
				c4.7-1.1,9-3.2,12.9-6.1c4.9-3.7,8.3-8.1,10.6-13c-0.2-0.5-0.4-1.1-0.6-1.6c-4.3-11.4-10.1-20.1-17.2-25.9
				C1752.1,1470.9,1749.5,1469.3,1746.8,1468.1z M1783,1500.7c0.4,1.3,0.8,2.7,1.2,4c7.1-15,17.9-28.6,31.9-38.4
				c8-5.7,17-10.2,26.5-13.5c4.2-3.3,9.2-5.8,15-7.3c8-2.1,16.5-1.9,24.6,0.4c9.9-0.2,20,0.7,30,2.7c18.8-12.5,42.5-22,71.5-29
				c-31.4-28.3-80.6-40.5-136.2-33.5c-35.6,4.4-62.1,15.7-78.8,33.5c7.5,11.9,12.6,24.9,15.3,36.7
				C1787.9,1473.4,1787.6,1488.5,1783,1500.7z M1748.7,1457.9c4.3,1.8,8.4,4.2,12,7.1c6.1,4.9,11.3,11.4,15.6,19.5
				c0.9-9.6-0.6-19.1-2.2-26c-2.3-9.8-6.3-20.6-12.2-30.7C1755.4,1437.2,1751.2,1447.5,1748.7,1457.9z M1735.3,1399.5
				c-14.9,10.9-25.8,23-32.7,36.3c-4.3,8.2-7,17.6-7.8,27.1c7.9-4.4,16.7-7.4,25.7-8.5c6.4-0.8,12.7-0.6,18.6,0.6
				c3.1-12.5,8.3-25,17-36.1C1750.3,1411.2,1743.4,1404.5,1735.3,1399.5z M1877.4,1374.1c48.5,0,90.5,15,118,42.7
				c0.1,0.1,0.1,0.1,0.2,0.2c8.2-1.7,17.2-3.2,26.6-4.1c-1-2.4-2.8-5.5-5.4-7.4c-73.5-54.8-177.6-62.8-258.9-20
				c-4.8,2.5-9.3,5.1-13.6,7.8c7.1,4.9,13.2,11,18.5,17.8c18.4-18.7,46.4-30.5,83.5-35.1C1856.9,1374.8,1867.3,1374.1,1877.4,1374.1
				z"/>
		</g>
	</g>
</g>
</svg>
