<svg width="718" height="244" viewBox="0 0 718 244" fill="none" xmlns="http://www.w3.org/2000/svg">
<path d="M112.384 193.96C110.464 193.96 108.928 193.448 107.776 192.424C106.624 191.4 106.048 189.992 106.048 188.2V148.648C106.048 141.224 108.16 135.4 112.384 131.176C116.608 126.952 122.432 124.84 129.856 124.84C133.44 124.84 136.8 125.736 139.936 127.528C143.136 129.256 145.888 131.752 148.192 135.016C150.432 131.688 153.12 129.16 156.256 127.432C159.456 125.704 162.912 124.84 166.624 124.84C174.048 124.84 179.872 126.952 184.096 131.176C188.32 135.4 190.432 141.224 190.432 148.648V188.2C190.432 189.928 189.824 191.336 188.608 192.424C187.456 193.448 185.92 193.96 184 193.96C182.08 193.96 180.544 193.448 179.392 192.424C178.24 191.4 177.664 189.992 177.664 188.2V148.648C177.664 143.784 176.768 140.296 174.976 138.184C173.184 136.008 170.24 134.92 166.144 134.92C162.432 134.92 159.552 136.104 157.504 138.472C155.52 140.84 154.528 144.232 154.528 148.648V188.2C154.528 189.992 153.952 191.4 152.8 192.424C151.648 193.448 150.112 193.96 148.192 193.96C146.272 193.96 144.736 193.448 143.584 192.424C142.496 191.4 141.952 189.992 141.952 188.2V148.648C141.952 144.36 140.928 141 138.88 138.568C136.832 136.136 133.984 134.92 130.336 134.92C126.24 134.92 123.296 136.008 121.504 138.184C119.712 140.296 118.816 143.784 118.816 148.648V188.2C118.816 189.928 118.208 191.336 116.992 192.424C115.84 193.448 114.304 193.96 112.384 193.96ZM216.564 193C211.7 193 207.924 191.72 205.236 189.16C202.548 186.6 201.204 183.016 201.204 178.408V140.008C201.204 135.528 202.484 132.04 205.044 129.544C207.668 127.048 211.284 125.8 215.892 125.8H245.748C247.668 125.8 249.14 126.248 250.164 127.144C251.188 127.976 251.7 129.192 251.7 130.792C251.7 132.328 251.156 133.544 250.068 134.44C249.044 135.272 247.604 135.688 245.748 135.688H218.1C216.82 135.688 215.796 136.104 215.028 136.936C214.324 137.768 213.972 138.92 213.972 140.392V153.736H238.452C240.372 153.736 241.844 154.184 242.868 155.08C243.892 155.912 244.404 157.128 244.404 158.728C244.404 160.264 243.86 161.48 242.772 162.376C241.748 163.208 240.308 163.624 238.452 163.624H213.972V178.408C213.972 179.88 214.324 181.032 215.028 181.864C215.796 182.696 216.82 183.112 218.1 183.112H247.86C249.78 183.112 251.252 183.56 252.276 184.456C253.3 185.288 253.812 186.504 253.812 188.104C253.812 189.64 253.268 190.856 252.18 191.752C251.156 192.584 249.716 193 247.86 193H216.564ZM269.498 193.96C267.578 193.96 266.042 193.448 264.89 192.424C263.738 191.4 263.162 189.992 263.162 188.2V152.008C263.162 143.496 265.818 136.84 271.13 132.04C276.442 127.24 283.802 124.84 293.21 124.84C302.618 124.84 309.978 127.24 315.29 132.04C320.602 136.84 323.258 143.496 323.258 152.008V188.2C323.258 189.992 322.682 191.4 321.53 192.424C320.378 193.448 318.842 193.96 316.922 193.96C315.002 193.96 313.434 193.448 312.218 192.424C311.066 191.336 310.49 189.928 310.49 188.2V151.72C310.49 146.28 309.018 142.12 306.074 139.24C303.13 136.36 298.842 134.92 293.21 134.92C287.578 134.92 283.29 136.36 280.346 139.24C277.402 142.12 275.93 146.28 275.93 151.72V188.2C275.93 189.928 275.322 191.336 274.106 192.424C272.954 193.448 271.418 193.96 269.498 193.96ZM357.109 193.96C355.189 193.96 353.653 193.448 352.501 192.424C351.349 191.4 350.773 189.992 350.773 188.2V135.688H332.245C330.389 135.688 328.917 135.272 327.829 134.44C326.805 133.544 326.293 132.328 326.293 130.792C326.293 129.192 326.805 127.976 327.829 127.144C328.853 126.248 330.325 125.8 332.245 125.8H382.069C383.989 125.8 385.461 126.248 386.485 127.144C387.509 127.976 388.021 129.192 388.021 130.792C388.021 132.328 387.477 133.544 386.389 134.44C385.365 135.272 383.925 135.688 382.069 135.688H363.541V188.2C363.541 189.928 362.933 191.336 361.717 192.424C360.565 193.448 359.029 193.96 357.109 193.96ZM411.283 193C406.419 193 402.643 191.72 399.955 189.16C397.267 186.6 395.923 183.016 395.923 178.408V140.008C395.923 135.528 397.203 132.04 399.763 129.544C402.387 127.048 406.003 125.8 410.611 125.8H440.467C442.387 125.8 443.859 126.248 444.883 127.144C445.907 127.976 446.419 129.192 446.419 130.792C446.419 132.328 445.875 133.544 444.787 134.44C443.763 135.272 442.323 135.688 440.467 135.688H412.819C411.539 135.688 410.515 136.104 409.747 136.936C409.043 137.768 408.691 138.92 408.691 140.392V153.736H433.171C435.091 153.736 436.563 154.184 437.587 155.08C438.611 155.912 439.123 157.128 439.123 158.728C439.123 160.264 438.579 161.48 437.491 162.376C436.467 163.208 435.027 163.624 433.171 163.624H408.691V178.408C408.691 179.88 409.043 181.032 409.747 181.864C410.515 182.696 411.539 183.112 412.819 183.112H442.579C444.499 183.112 445.971 183.56 446.995 184.456C448.019 185.288 448.531 186.504 448.531 188.104C448.531 189.64 447.987 190.856 446.899 191.752C445.875 192.584 444.435 193 442.579 193H411.283ZM516.496 193.96C510.224 193.96 504.336 192.936 498.832 190.888C493.328 188.776 488.56 185.768 484.528 181.864C483.568 180.904 483.088 179.816 483.088 178.6C483.088 177.192 483.728 175.848 485.008 174.568C486.032 173.544 487.152 173.032 488.368 173.032C489.648 173.032 491.184 173.768 492.976 175.24C495.984 177.992 499.536 180.136 503.632 181.672C507.792 183.144 512.08 183.88 516.496 183.88C520.72 183.88 524.016 183.176 526.384 181.768C528.752 180.296 529.936 178.248 529.936 175.624C529.936 172.872 528.656 170.664 526.096 169C523.536 167.272 519.184 165.736 513.04 164.392C503.376 162.28 496.336 159.496 491.92 156.04C487.568 152.584 485.392 148.136 485.392 142.696C485.392 139.24 486.544 136.168 488.848 133.48C491.152 130.728 494.352 128.616 498.448 127.144C502.608 125.608 507.344 124.84 512.656 124.84C518.608 124.84 523.888 125.832 528.496 127.816C533.168 129.736 536.72 132.456 539.152 135.976C539.984 137.32 540.4 138.472 540.4 139.432C540.336 141.032 539.536 142.408 538 143.56C537.168 144.136 536.208 144.424 535.12 144.424C533.136 144.424 531.504 143.656 530.224 142.12C528.368 139.88 525.872 138.12 522.736 136.84C519.664 135.56 516.304 134.92 512.656 134.92C508.112 134.92 504.56 135.624 502 137.032C499.504 138.376 498.256 140.264 498.256 142.696C498.256 145.128 499.472 147.144 501.904 148.744C504.4 150.28 508.688 151.752 514.768 153.16C521.488 154.76 526.896 156.584 530.992 158.632C535.088 160.616 538.064 162.984 539.92 165.736C541.84 168.488 542.8 171.784 542.8 175.624C542.8 179.272 541.712 182.504 539.536 185.32C537.36 188.072 534.288 190.216 530.32 191.752C526.352 193.224 521.744 193.96 516.496 193.96ZM558.435 193.864C556.515 193.864 554.979 193.352 553.827 192.328C552.675 191.304 552.099 189.896 552.099 188.104V154.504C552.099 145.224 554.755 137.96 560.067 132.712C565.379 127.464 572.771 124.84 582.243 124.84C588.451 124.84 593.827 126.024 598.371 128.392C602.915 130.76 606.371 134.184 608.739 138.664C611.171 143.144 612.387 148.424 612.387 154.504V188.104C612.387 189.896 611.811 191.304 610.659 192.328C609.507 193.352 607.971 193.864 606.051 193.864C604.131 193.864 602.563 193.352 601.347 192.328C600.195 191.24 599.619 189.832 599.619 188.104V172.456H564.867V188.104C564.867 189.832 564.259 191.24 563.043 192.328C561.891 193.352 560.355 193.864 558.435 193.864ZM599.619 162.568V154.216C599.619 147.816 598.147 143.016 595.203 139.816C592.323 136.552 588.003 134.92 582.243 134.92C570.659 134.92 564.867 141.352 564.867 154.216V162.568H599.619ZM566.211 116.584C565.379 116.328 564.707 115.912 564.195 115.336C563.747 114.76 563.523 114.056 563.523 113.224C563.523 112.392 563.683 111.656 564.003 111.016C565.155 108.392 566.595 106.408 568.323 105.064C570.051 103.656 572.259 102.952 574.947 102.952C576.675 102.952 578.243 103.272 579.651 103.912C581.059 104.488 582.659 105.32 584.451 106.408C584.707 106.536 585.155 106.824 585.795 107.272C586.499 107.656 587.107 107.944 587.619 108.136C588.131 108.328 588.611 108.424 589.059 108.424C589.891 108.424 590.595 108.2 591.171 107.752C591.747 107.304 592.291 106.504 592.803 105.352C593.827 103.304 595.139 102.28 596.739 102.28C598.019 102.28 599.043 102.632 599.811 103.336C600.643 103.976 601.059 104.84 601.059 105.928C601.059 106.76 600.899 107.496 600.579 108.136C599.427 110.76 597.987 112.776 596.259 114.184C594.531 115.528 592.323 116.2 589.635 116.2C588.035 116.2 586.595 115.944 585.315 115.432C584.035 114.856 582.595 114.056 580.995 113.032C579.907 112.264 578.947 111.688 578.115 111.304C577.283 110.92 576.419 110.728 575.523 110.728C574.691 110.728 573.987 110.952 573.411 111.4C572.835 111.848 572.291 112.648 571.779 113.8C570.755 115.848 569.443 116.872 567.843 116.872C567.331 116.872 566.787 116.776 566.211 116.584Z" fill="white"/>
<path d="M320.236 0.193839C320.236 0.193839 339.508 -1.78056 358.122 6.87328C358.122 6.87328 380.897 16.1354 380.016 36.4817C380.016 36.4817 379.797 49.8436 384.178 53.7909C384.178 53.7909 390.089 60.016 386.805 61.8379C386.805 61.8379 381.549 64.4191 374.978 64.875C374.978 64.875 382.205 71.1001 371.256 72.922C371.256 72.922 378.264 78.6912 370.819 80.969C370.819 80.969 368.629 82.0257 370.162 86.5873C370.162 86.5873 371.247 92.9649 360.308 92.8124C360.308 92.8124 339.941 90.3836 323.516 97.8224L316.289 104.656C316.289 104.656 301.403 93.1158 317.393 76.5659C317.393 76.5659 358.344 57.8906 358.782 47.8692C358.782 47.8692 374.988 26.3093 344.328 9.45449L320.236 0.193839Z" fill="white"/>
<path d="M342.551 47.2381C342.551 47.2381 347.578 37.2317 339.643 33.3267C339.643 33.3267 333.359 30.981 325.891 35.3539C325.753 35.417 325.602 35.4598 325.446 35.4807C325.282 35.5079 324.858 35.5758 324.087 35.1577C324.087 35.1577 317.803 30.3636 311.439 32.6686C311.439 32.6686 300.443 36.0121 308.456 47.2381C308.456 47.2381 312.075 50.9951 316.694 53.4888L316.73 53.5099C317.063 53.7288 322.354 57.2323 324.951 60.8279C324.951 60.8279 330.379 59.4407 328.879 53.9492C328.879 53.9492 328.093 49.8615 319.139 45.2244C319.139 45.2244 328.879 52.7461 325.37 56.7568C325.36 56.7715 325.344 56.783 325.325 56.7898C325.306 56.7965 325.286 56.7982 325.266 56.7945C325.246 56.7908 325.227 56.782 325.214 56.7693C325.2 56.7566 325.192 56.7406 325.189 56.7236C325.066 55.901 324.853 53.8028 319.256 51.0133L319.202 50.9906C318.708 50.7219 310.754 46.5709 310.068 44.6795C310.068 44.6795 307.632 40.3548 313.96 36.1872C313.982 36.1739 314.008 36.1652 314.036 36.1615C314.063 36.1579 314.091 36.1595 314.117 36.1662C314.143 36.1729 314.167 36.1845 314.188 36.2002C314.208 36.2158 314.223 36.2351 314.233 36.2566C314.449 36.9812 314.932 38.8227 317.639 39.9171C317.639 39.9171 335.552 46.9996 337.361 49.8645C337.361 49.8645 344.433 56.4504 322.524 64.2604C322.524 64.2604 321.581 65.1133 320.481 62.917C320.481 62.917 318.911 59.0739 306.97 50.7159C306.97 50.7159 296.602 43.1504 301.156 33.8097C301.156 33.8097 307.833 22.4011 320.481 29.0504C320.481 29.0504 323.859 31.2466 324.723 32.4059C324.723 32.4059 324.8 32.9554 326.215 32.104C326.215 32.104 335.563 24.6608 344.129 28.9341C344.129 28.9341 349.628 31.8021 348.92 38.5737C348.913 38.5737 348.205 44.4319 342.551 47.2381Z" fill="#F2D544"/>
<path d="M324.294 20.6799C329.161 20.6799 333.106 17.6157 333.106 13.8359C333.106 10.0561 329.161 6.99194 324.294 6.99194C319.427 6.99194 315.482 10.0561 315.482 13.8359C315.482 17.6157 319.427 20.6799 324.294 20.6799Z" fill="#F2D544"/>
</svg>
